<?xml version="1.0" encoding="utf-8"?>
<!-- Svg Vector Icons : http://www.onlinewebfonts.com/icon -->
<!DOCTYPE svg PUBLIC "-//W3C//DTD SVG 1.1//EN" "http://www.w3.org/Graphics/SVG/1.1/DTD/svg11.dtd">
<svg version="1.1" xmlns="http://www.w3.org/2000/svg" xmlns:xlink="http://www.w3.org/1999/xlink" x="0px" y="0px" viewBox="0 0 1000 1000" enable-background="new 0 0 1000 1000" xml:space="preserve">
<metadata> Svg Vector Icons : http://www.onlinewebfonts.com/icon </metadata>
<g><g transform="translate(0.000000,511.000000) scale(0.100000,-0.100000)"><path d="M8976.5,3143.6c-469.7-44.3-895-82.7-945.3-82.7c-82.7-2.9-70.9-20.7,259.9-351.5c189.1-189.1,345.6-360.4,345.6-375.2c0-17.7-635.1-664.6-1409-1438.6l-1412-1411.9l-892.1,892.1l-895,895L2064.4-693.5L100-2657.9l177.2-177.2l177.2-177.2l1781.2,1781.2L4013.9,547.1L4909-345l892.1-895L7410.9,369.9l1609.9,1609.9l354.5-354.5c195-195,354.5-342.7,354.5-330.8c0,38.4,144.8,1627.6,162.5,1787.1c14.8,118.2,8.9,153.6-20.7,150.7C9850.8,3229.2,9449.1,3190.8,8976.5,3143.6z"/></g></g>
</svg>