<?xml version="1.0" standalone="no"?>
<!DOCTYPE svg PUBLIC "-//W3C//DTD SVG 20010904//EN"
 "http://www.w3.org/TR/2001/REC-SVG-20010904/DTD/svg10.dtd">
<svg version="1.0" xmlns="http://www.w3.org/2000/svg"
 width="1920.000000pt" height="1740.000000pt" viewBox="0 0 1920.000000 1740.000000"
 preserveAspectRatio="xMidYMid meet">
<metadata>
Created by potrace 1.15, written by Peter Selinger 2001-2017
</metadata>
<g transform="translate(0.000000,1740.000000) scale(0.100000,-0.100000)"
fill="#FFFFFF" fill-opacity="0.8" stroke="none">
<path d="M767 17228 c-59 -178 -68 -235 -46 -297 10 -29 8 -35 -23 -74 -111
-136 -183 -283 -229 -464 -35 -140 -37 -226 -8 -355 29 -125 66 -194 154 -277
70 -66 128 -101 230 -136 70 -24 233 -31 311 -12 l60 14 48 -72 c26 -40 56
-81 66 -90 11 -10 20 -23 20 -30 0 -6 -25 -45 -56 -86 -70 -93 -104 -163 -111
-234 -5 -47 -3 -58 13 -70 24 -18 102 -18 134 0 36 21 43 18 63 -23 28 -59 43
-73 88 -83 108 -25 202 37 273 180 l35 68 73 -24 c199 -66 376 -94 596 -96
l142 -1 0 -46 c0 -66 26 -159 58 -204 34 -50 101 -86 158 -86 39 0 45 4 71 41
59 85 52 81 103 63 79 -28 131 -3 165 80 13 31 16 65 13 155 l-3 116 65 33
c81 40 207 136 237 181 40 59 47 104 34 220 -6 57 -9 106 -6 109 2 3 17 0 32
-7 15 -6 79 -22 142 -36 89 -19 142 -25 242 -25 145 0 208 11 294 49 68 31 93
57 189 196 83 121 119 161 168 186 71 36 104 26 210 -63 68 -57 143 -91 189
-85 46 6 97 40 110 74 13 35 11 99 -4 136 -23 54 -98 121 -182 163 l-79 39
-146 -1 c-141 -1 -148 -2 -250 -38 -123 -43 -152 -67 -238 -197 -38 -59 -68
-93 -89 -103 -45 -22 -152 -37 -210 -31 -99 11 -208 27 -214 31 -10 6 -219 34
-255 34 -30 0 -42 12 -154 152 -67 83 -126 159 -133 168 -25 35 -177 121 -307
173 -222 89 -455 137 -752 153 l-127 7 56 75 c72 98 100 161 125 280 22 111
23 267 0 281 -7 4 -44 14 -82 20 -83 15 -75 19 -235 -104 -66 -51 -139 -104
-162 -118 l-42 -27 -73 50 c-78 54 -147 80 -213 80 -55 0 -83 23 -119 99 l-30
61 -53 0 c-29 0 -53 -3 -53 -6 0 -3 18 -44 40 -91 22 -47 40 -87 40 -88 0 -1
-18 -10 -40 -20 -26 -12 -40 -25 -40 -36 0 -13 -20 -29 -62 -50 -35 -17 -89
-49 -120 -70 -32 -22 -60 -39 -64 -39 -12 0 10 88 43 175 20 50 44 120 53 158
l18 67 -47 0 -47 0 -57 -172z m1257 21 c12 -61 6 -129 -18 -203 -24 -71 -106
-234 -146 -286 l-19 -25 -19 45 c-56 128 -73 159 -106 203 -20 26 -36 49 -36
51 0 16 310 246 331 246 4 0 9 -14 13 -31z m-596 -143 c30 -15 91 -65 141
-114 75 -73 98 -104 142 -190 l54 -104 -1 -126 c-2 -149 -23 -242 -84 -370
-63 -132 -130 -215 -268 -334 -111 -96 -129 -108 -162 -108 -22 0 -43 -7 -51
-16 -22 -27 -62 -41 -136 -49 -89 -9 -151 4 -251 53 -126 61 -237 205 -271
353 -25 106 -2 255 64 417 36 90 145 269 201 331 101 113 250 210 346 226 31
5 44 14 57 37 16 30 16 30 91 25 56 -3 88 -11 128 -31z m672 -512 c0 -3 -9
-19 -20 -34 -27 -38 -174 -345 -212 -444 -28 -72 -57 -174 -58 -203 0 -7 14
-20 31 -29 29 -15 35 -14 74 1 44 16 83 53 341 323 60 63 117 118 126 123 16
9 16 5 -2 -43 -12 -29 -27 -66 -35 -83 -132 -292 -189 -474 -154 -496 46 -29
96 -2 244 134 185 171 345 291 362 273 9 -9 -24 -108 -83 -248 -30 -69 -61
-152 -69 -184 -17 -67 -20 -166 -5 -194 10 -18 13 -18 63 -4 72 22 116 52 216
153 150 152 339 277 401 264 23 -4 28 -15 59 -138 38 -152 44 -244 19 -290
-37 -68 -168 -164 -253 -185 -22 -6 -51 -17 -65 -26 -53 -32 -98 -47 -165 -55
-38 -4 -95 -15 -125 -23 -95 -26 -259 -34 -465 -20 -255 16 -446 62 -510 123
-17 16 -46 31 -66 34 -100 15 -275 126 -356 225 -38 45 -87 123 -81 126 2 1
37 22 78 46 133 77 287 258 356 417 13 32 29 67 34 78 21 43 61 193 67 250 8
85 17 98 59 90 29 -5 34 -3 34 14 0 16 8 21 38 24 65 7 122 7 122 1z m229 -14
c47 -6 103 -18 125 -25 23 -8 70 -21 106 -30 96 -24 211 -70 341 -136 126 -64
122 -60 292 -274 l88 -110 -42 -6 c-28 -4 -50 -14 -64 -31 -12 -14 -55 -48
-96 -76 -42 -27 -118 -89 -170 -137 -94 -88 -177 -151 -185 -142 -8 8 38 142
78 227 64 135 98 248 98 323 0 86 -5 97 -45 97 -37 0 -101 -40 -257 -162 -58
-45 -146 -114 -195 -152 -48 -38 -94 -74 -102 -80 -12 -9 -13 -8 -4 9 13 24
111 232 122 260 5 11 17 38 26 59 78 177 91 239 59 284 -41 58 -82 28 -397
-292 -164 -167 -178 -178 -172 -146 3 19 57 139 121 267 63 127 117 246 121
263 5 29 8 31 37 26 17 -3 69 -10 115 -16z m2485 -335 c67 -28 110 -63 134
-109 58 -108 -25 -115 -137 -11 -61 56 -100 75 -159 76 -151 4 -265 -75 -343
-238 -39 -82 -91 -140 -146 -164 -81 -35 -239 -62 -328 -57 -70 5 -98 13 -196
56 -63 28 -127 52 -143 54 -23 2 -33 11 -43 36 -13 32 -13 33 7 27 11 -3 34 0
51 9 27 14 41 14 132 0 218 -31 275 -36 350 -30 130 9 202 60 266 183 58 112
169 173 341 187 78 6 174 -2 214 -19z m-3339 -895 c17 -18 16 -21 -9 -65 -42
-71 -86 -116 -135 -137 -24 -10 -46 -17 -48 -14 -3 2 4 24 15 48 19 42 137
188 151 188 5 0 16 -9 26 -20z m175 -105 c48 -24 49 -26 38 -53 -22 -50 -76
-129 -99 -146 -27 -19 -80 -21 -97 -4 -7 7 -12 24 -12 38 0 28 95 190 111 190
5 0 32 -11 59 -25z m1423 -158 c7 -71 -4 -132 -27 -155 -13 -13 -19 -13 -53
-1 l-38 15 0 84 0 85 50 17 c28 9 53 17 56 18 3 0 9 -28 12 -63z m-240 -64
c11 -112 8 -149 -11 -173 -15 -19 -22 -21 -39 -11 -28 15 -93 132 -93 168 0
61 9 72 59 76 25 2 53 4 62 5 13 2 17 -12 22 -65z"/>
<path d="M1003 16479 c-40 -19 -55 -41 -68 -99 -4 -18 2 -37 20 -64 l26 -38
-21 -63 c-13 -40 -37 -81 -62 -110 -36 -41 -45 -46 -71 -41 -52 11 -60 24 -36
62 38 62 13 125 -44 110 -39 -9 -67 -63 -69 -134 -2 -69 15 -103 64 -128 45
-23 147 -16 188 14 l31 23 31 -23 c23 -16 50 -23 93 -26 141 -9 243 101 289
310 7 30 7 29 -76 43 l-38 6 0 -63 c0 -56 -4 -69 -35 -112 -51 -73 -73 -83
-157 -78 -40 3 -44 35 -13 105 14 32 25 64 25 71 0 7 18 26 41 42 56 39 79 71
79 111 0 49 -14 68 -60 87 -54 21 -86 20 -137 -5z"/>
<path d="M3841 17384 c50 -60 248 -161 439 -225 322 -106 731 -166 1295 -190
280 -12 439 -5 593 27 251 52 432 190 480 367 l10 37 -44 0 c-43 0 -45 -1 -66
-47 -27 -59 -117 -149 -184 -185 -336 -181 -1387 -142 -2049 77 -61 20 -164
63 -230 96 -112 55 -126 59 -189 59 -62 0 -67 -2 -55 -16z"/>
<path d="M7040 17393 c0 -5 48 -36 107 -70 l107 -61 26 18 c14 10 50 41 80 69
l55 50 -187 1 c-104 0 -188 -3 -188 -7z"/>
<path d="M8873 17348 c22 -217 206 -361 439 -345 163 11 272 97 308 243 l10
42 43 -15 c90 -32 226 6 294 81 l38 41 -52 3 c-41 2 -58 -2 -89 -23 -36 -25
-45 -27 -114 -22 -46 3 -94 13 -123 26 -34 15 -69 21 -116 21 -60 0 -70 -3
-92 -26 -33 -35 -91 -64 -131 -64 -39 0 -90 29 -114 65 -13 20 -25 25 -55 25
-45 0 -48 -10 -18 -60 74 -121 260 -143 370 -43 36 32 42 35 55 21 13 -13 13
-22 3 -63 -25 -98 -129 -165 -255 -165 -52 0 -74 6 -143 40 -122 62 -165 115
-178 220 l-6 50 -40 0 -40 0 6 -52z"/>
<path d="M11578 17312 c-94 -107 -110 -129 -225 -312 -85 -135 -153 -262 -166
-309 -3 -15 -17 -21 -53 -26 -221 -29 -407 -200 -480 -441 -28 -89 -26 -292 3
-356 22 -47 73 -93 80 -71 2 6 35 57 74 112 91 132 177 223 237 251 26 12 54
29 64 37 14 13 22 10 71 -28 l55 -42 -31 -21 c-51 -35 -106 -115 -129 -190
-19 -62 -19 -71 -6 -100 15 -30 14 -32 -14 -60 -37 -36 -83 -128 -75 -150 4
-9 20 -19 37 -22 35 -7 34 -5 15 -50 -22 -54 -45 -176 -45 -243 0 -112 33
-215 87 -273 l26 -27 37 19 c45 23 78 61 104 117 17 38 21 41 39 31 18 -9 24
-6 44 18 37 45 90 139 109 191 11 31 17 82 18 145 l1 97 38 7 c22 3 46 15 55
25 30 35 74 163 79 229 l5 65 58 0 58 0 17 -92 c26 -139 8 -232 -81 -402 -30
-58 -54 -106 -54 -108 0 -2 15 -10 34 -18 41 -17 83 -8 176 41 241 126 370
357 339 608 -12 98 -29 144 -90 243 l-50 82 60 120 c119 238 202 569 227 899
l7 92 -42 0 c-23 0 -40 -4 -37 -9 16 -25 -138 -29 -204 -6 -32 11 -88 15 -219
15 l-177 0 -76 -88z m358 -236 c143 -67 179 -259 71 -382 -71 -81 -195 -123
-281 -94 -99 32 -167 149 -167 284 0 93 37 150 126 192 70 33 179 33 251 0z
m-807 -558 c-11 -34 -23 -103 -26 -153 l-6 -90 -61 -30 c-74 -36 -194 -152
-258 -248 l-45 -68 -12 45 c-30 118 -6 265 59 366 77 120 245 236 346 239 l22
1 -19 -62z m902 -355 c92 -146 96 -375 9 -528 -36 -62 -109 -133 -175 -170
-27 -15 -64 -36 -82 -47 l-32 -19 33 73 c64 139 84 317 50 439 l-16 57 66 92
c37 51 74 105 83 121 10 16 21 29 25 29 5 0 22 -21 39 -47z"/>
<path d="M15878 16924 c-279 -50 -492 -225 -576 -474 l-19 -55 -104 -6 c-242
-15 -350 -107 -390 -333 -38 -223 124 -447 426 -587 108 -50 216 -81 375 -109
158 -28 565 -39 741 -21 392 41 686 173 784 352 40 74 46 180 15 261 -41 110
-159 195 -325 234 l-72 17 -7 85 c-22 290 -131 481 -329 576 -144 70 -341 92
-519 60z m336 -74 c167 -42 316 -155 383 -290 57 -112 75 -204 76 -380 1 -85
-2 -177 -7 -203 l-7 -49 -82 -39 c-124 -59 -218 -80 -387 -86 -173 -6 -305 10
-493 62 -206 56 -325 120 -377 202 -55 86 -48 169 26 323 63 131 144 249 212
310 69 62 194 126 294 151 103 25 262 25 362 -1z"/>
<path d="M7320 16642 c-41 -15 -79 -32 -85 -39 -5 -7 -36 -21 -67 -33 -73 -27
-160 -91 -221 -163 l-48 -56 -32 19 c-127 78 -275 -94 -209 -243 20 -46 69
-87 103 -87 13 0 17 -17 22 -97 7 -119 39 -234 91 -328 45 -81 188 -228 279
-289 41 -27 56 -41 48 -49 -14 -14 -110 72 -289 261 -303 321 -287 305 -314
299 -13 -4 -41 -23 -62 -44 -24 -25 -47 -38 -64 -38 -34 0 -54 -35 -115 -207
l-48 -133 -39 -1 c-84 -4 -163 -88 -175 -189 -8 -62 -3 -92 27 -152 l21 -42
-96 -279 -95 -279 24 -29 c13 -16 23 -32 24 -36 0 -4 -26 -12 -57 -18 -74 -14
-277 -70 -415 -114 l-106 -34 -26 82 c-48 151 -102 220 -171 220 -141 0 -168
-221 -52 -415 75 -125 183 -132 246 -15 l26 48 195 59 c182 55 363 99 408 99
13 0 51 -42 119 -132 131 -173 236 -292 322 -367 96 -82 98 -83 178 -72 37 5
232 12 433 14 l365 4 110 -165 c123 -185 178 -277 206 -340 17 -39 17 -46 4
-72 -25 -48 -19 -78 24 -121 37 -37 42 -39 103 -39 53 0 77 6 129 32 90 45
179 136 208 213 26 69 31 152 12 188 -45 85 -196 50 -316 -72 -32 -33 -62 -67
-67 -75 -11 -19 -28 -21 -28 -3 0 7 -16 40 -36 73 -20 32 -44 73 -54 89 -10
17 -57 89 -105 160 l-87 130 143 5 144 5 33 130 c18 72 36 141 39 155 35 167
158 518 222 633 48 88 81 183 81 236 0 38 -1 39 -41 46 -30 5 -39 11 -37 24 2
9 42 51 90 93 l86 77 37 -35 c90 -84 213 -115 295 -72 74 38 109 127 79 205
-23 62 -143 153 -202 153 -16 0 -15 4 8 43 29 51 34 117 9 141 -22 22 -76 20
-107 -4 -37 -29 -86 -135 -93 -200 -10 -97 -19 -113 -116 -199 -50 -45 -95
-81 -99 -81 -5 0 -9 11 -9 25 0 14 -8 33 -19 44 -17 17 -34 18 -237 15 l-219
-4 92 24 c121 32 218 84 302 163 64 59 71 62 94 52 85 -39 207 72 211 192 1
52 -22 95 -64 116 -23 11 -24 16 -25 140 -1 102 -5 141 -23 193 -47 143 -142
263 -319 405 -175 140 -285 186 -443 184 -65 -1 -103 -7 -160 -27z m177 -87
c42 -33 134 -147 162 -202 18 -36 75 -83 86 -71 2 2 6 19 10 38 5 29 0 45 -29
93 -20 32 -54 82 -77 110 -33 42 -27 38 29 -21 84 -86 115 -154 105 -227 -6
-44 -5 -45 21 -45 64 0 87 89 45 179 -23 51 -29 54 81 -43 217 -191 291 -370
245 -591 -48 -230 -229 -418 -451 -471 -92 -22 -252 -14 -349 16 -291 91 -493
336 -512 620 -11 171 44 308 175 437 104 103 153 128 247 128 87 0 141 -28
212 -111 41 -48 87 -84 108 -84 3 0 5 20 5 44 0 37 -7 53 -41 96 -22 28 -68
69 -101 91 -55 35 -58 39 -33 39 15 0 43 -11 62 -25z m-607 -1119 c163 -168
273 -263 317 -275 65 -18 427 -41 640 -41 l202 0 11 -56 c7 -30 10 -57 8 -60
-14 -13 -793 92 -894 121 -28 8 -57 22 -65 31 -7 9 -105 95 -216 191 -112 96
-235 211 -273 255 l-70 81 27 29 27 28 90 -98 c50 -53 138 -146 196 -206z
m-329 100 c44 -47 140 -136 212 -198 72 -62 169 -147 216 -189 47 -42 95 -81
107 -87 48 -26 398 -82 786 -127 269 -32 261 -29 252 -69 -3 -17 -37 -94 -74
-171 -97 -200 -227 -606 -255 -795 l-7 -45 -501 -3 c-276 -2 -542 -7 -592 -11
-73 -7 -95 -5 -115 7 -65 40 -250 245 -363 402 -65 91 -131 183 -148 206 l-30
41 70 204 c39 112 78 224 88 249 l18 45 55 -3 c64 -3 109 20 147 77 43 63 24
169 -40 229 l-25 24 19 56 c25 75 92 242 95 242 2 0 40 -38 85 -84z m2023
-223 c53 -38 79 -76 79 -114 0 -91 -152 -91 -237 0 -26 27 -28 33 -18 56 7 14
12 38 12 54 0 39 8 44 69 38 38 -4 67 -15 95 -34z m-2330 6 c-4 -7 19 -35 55
-68 52 -49 61 -62 61 -92 -1 -111 -147 -117 -189 -7 -18 49 8 132 51 162 27
19 32 20 22 5z m-1006 -881 c25 -28 70 -121 78 -166 4 -18 16 -39 27 -47 12
-8 16 -15 10 -15 -7 0 -13 -16 -15 -36 -2 -24 -10 -42 -24 -51 -19 -12 -24
-11 -49 14 -15 16 -42 57 -59 93 -24 52 -31 78 -31 131 0 41 5 72 14 82 18 22
23 21 49 -5z m2946 -1033 c3 -8 -1 -35 -8 -59 -43 -142 -254 -286 -321 -220
-15 15 -15 18 4 35 11 11 38 45 60 77 44 64 109 129 161 161 41 24 95 28 104
6z"/>
<path d="M7375 16248 c-49 -26 -61 -90 -24 -124 29 -26 93 -23 125 6 32 31 34
92 2 114 -26 18 -74 20 -103 4z"/>
<path d="M7730 16061 c-22 -21 -30 -39 -30 -64 0 -44 26 -67 76 -67 50 0 79
20 94 66 11 32 10 39 -7 63 -15 19 -30 27 -62 29 -35 3 -46 -2 -71 -27z"/>
<path d="M7255 15956 c-12 -8 -17 -30 -19 -76 -3 -104 47 -175 162 -228 76
-34 148 -32 233 7 62 28 79 44 79 76 0 26 -59 26 -123 -1 -56 -24 -67 -26
-114 -16 -94 19 -153 82 -153 162 0 67 -30 102 -65 76z"/>
<path d="M7361 14821 c-16 -16 -21 -33 -21 -76 0 -33 -12 -92 -29 -147 -17
-51 -33 -109 -36 -129 -8 -45 2 -49 125 -49 47 0 139 -7 204 -16 65 -8 124
-13 131 -10 6 2 17 43 24 90 6 47 21 120 31 162 27 103 26 122 -5 134 -33 13
-241 48 -331 56 -64 6 -73 5 -93 -15z m233 -90 c65 -11 119 -21 121 -23 3 -3
-44 -221 -48 -224 -1 -1 -24 2 -52 6 -27 5 -94 9 -147 9 -54 1 -98 2 -98 4 0
1 11 38 25 82 14 44 25 99 25 123 0 39 2 42 28 42 15 0 80 -9 146 -19z"/>
<path d="M12878 16114 c-32 -10 -58 -28 -85 -58 -180 -204 -114 -418 195 -624
141 -95 108 -98 294 27 179 120 246 183 285 267 35 77 30 172 -14 265 -53 113
-104 144 -223 137 -54 -3 -78 -10 -117 -34 -50 -31 -50 -31 -74 -13 -58 46
-173 60 -261 33z"/>
<path d="M18161 15458 c-59 -16 -119 -65 -146 -117 -28 -56 -37 -61 -115 -61
-32 0 -96 -11 -143 -25 -200 -58 -396 -176 -570 -344 -223 -216 -348 -427
-402 -682 -13 -61 -25 -112 -27 -114 -1 -1 -48 29 -103 69 -130 92 -198 127
-331 172 -92 32 -126 38 -219 42 -99 4 -118 2 -188 -22 -175 -59 -261 -147
-261 -266 2 -152 150 -261 431 -317 109 -21 381 -22 494 -1 l77 14 -26 -41
c-14 -22 -43 -66 -64 -98 -56 -82 -94 -169 -119 -267 -18 -70 -21 -103 -16
-190 10 -200 88 -340 222 -402 43 -20 66 -23 160 -23 97 0 116 3 165 26 137
64 212 179 250 383 17 93 8 256 -23 379 l-24 98 21 -7 c11 -3 95 -35 185 -71
184 -73 283 -97 457 -114 292 -28 723 32 980 136 125 50 217 107 301 189 l74
71 -3 67 -3 67 -61 -78 c-47 -59 -84 -93 -153 -140 -51 -33 -103 -61 -117 -61
-32 0 -188 79 -294 149 -112 74 -265 222 -312 301 -20 34 -44 93 -53 131 -11
43 -22 69 -31 69 -7 0 -47 -13 -88 -30 -41 -16 -121 -41 -178 -55 -128 -33
-151 -46 -142 -83 4 -15 8 -29 10 -31 2 -2 263 57 326 75 13 4 25 -10 49 -58
92 -183 249 -329 515 -478 l87 -48 -68 -21 c-236 -73 -726 -113 -936 -76 -124
21 -571 171 -618 207 -13 10 -37 18 -52 18 -39 0 -38 -26 2 -127 87 -219 92
-410 18 -608 -30 -82 -107 -158 -179 -179 -120 -36 -232 -13 -300 60 -110 120
-135 310 -65 501 49 136 205 355 291 410 27 18 69 53 94 79 l45 47 -50 -6
c-27 -3 -79 -19 -115 -36 -94 -44 -167 -60 -318 -71 -363 -26 -673 54 -743
192 -46 91 27 176 195 227 132 41 268 20 455 -70 125 -59 183 -95 271 -164 36
-29 75 -55 88 -59 34 -11 68 30 82 100 53 268 115 405 276 608 146 183 302
309 488 397 112 52 184 77 263 89 94 15 107 9 126 -58 34 -118 97 -195 185
-226 142 -50 346 -8 412 84 l22 31 31 -21 c81 -53 147 -79 228 -90 75 -11 92
-10 159 8 75 20 75 20 107 0 18 -11 37 -27 43 -36 7 -12 9 1 10 49 0 36 -5 70
-11 76 -9 9 -9 20 0 44 6 17 11 64 11 103 0 128 -63 215 -199 279 -60 29 -75
32 -166 32 -146 0 -222 -28 -265 -98 l-18 -28 -33 29 c-93 81 -252 121 -358
90z m171 -88 c72 -22 148 -69 172 -105 26 -39 56 -163 46 -189 -30 -79 -193
-129 -313 -95 -114 31 -207 224 -152 316 28 48 101 90 161 92 12 1 51 -8 86
-19z m640 -9 c94 -36 158 -124 161 -223 2 -54 -20 -91 -74 -123 -27 -16 -52
-20 -124 -20 -80 0 -98 4 -155 31 -114 54 -170 121 -170 201 1 112 78 166 225
159 49 -2 102 -12 137 -25z"/>
<path d="M18253 15285 c-111 -48 -63 -230 64 -242 62 -6 98 9 123 49 46 76 1
171 -95 197 -50 14 -53 13 -92 -4z"/>
<path d="M18740 15262 c-22 -23 -30 -40 -30 -67 0 -101 95 -164 180 -120 38
20 50 43 50 99 0 36 -6 52 -28 77 -24 27 -37 33 -85 37 -52 4 -58 2 -87 -26z"/>
<path d="M0 15097 l0 -188 45 -64 c73 -102 125 -242 140 -375 11 -97 -46 -267
-146 -431 -37 -62 -40 -71 -37 -130 l3 -64 53 70 c56 76 137 232 171 332 83
247 31 479 -156 699 l-62 72 14 71 c12 54 13 82 5 117 -23 102 -29 79 -30
-109z"/>
<path d="M14115 15155 c-14 -13 -25 -34 -25 -47 0 -36 43 -115 120 -218 38
-52 72 -109 76 -126 6 -32 -9 -74 -26 -74 -25 0 -81 69 -135 165 -65 117 -119
175 -162 175 -35 0 -113 -47 -113 -68 0 -30 47 -118 119 -225 67 -99 101 -162
101 -188 0 -7 -10 -9 -27 -5 -39 9 -97 75 -171 194 -98 158 -149 187 -211 117
-58 -66 -41 -142 71 -315 30 -47 93 -150 140 -230 107 -181 155 -242 214 -270
54 -27 99 -21 144 17 30 25 31 25 46 7 44 -56 101 -146 184 -289 172 -298 266
-416 357 -443 164 -49 282 59 251 230 -22 118 -100 226 -353 489 l-166 170 50
45 c90 81 112 168 70 280 -27 71 -335 534 -394 592 -39 37 -49 42 -90 42 -35
0 -52 -6 -70 -25z m130 -66 c20 -18 58 -68 84 -113 26 -45 99 -157 161 -251
139 -209 167 -265 151 -304 -7 -15 -48 -63 -91 -106 -44 -44 -80 -84 -80 -90
0 -6 36 -46 80 -90 l80 -80 -37 -19 c-21 -10 -62 -43 -91 -74 -29 -30 -57 -51
-62 -46 -4 5 -41 55 -82 110 l-74 101 -54 -28 c-71 -36 -93 -36 -134 4 -33 31
-387 593 -407 645 -15 40 -3 72 26 72 28 0 70 -49 176 -207 75 -111 98 -133
143 -133 29 0 96 35 96 50 0 28 -38 101 -105 203 -75 115 -110 193 -99 222 8
19 18 19 52 1 33 -17 56 -48 113 -151 55 -100 117 -165 158 -165 35 0 88 41
93 73 7 39 -18 101 -69 178 -70 104 -100 159 -108 197 -6 29 -5 32 19 32 14 0
41 -14 61 -31z"/>
<path d="M9426 15056 c-184 -96 -491 -355 -510 -430 -9 -37 16 -80 59 -100 36
-17 36 -17 75 14 47 37 87 50 155 50 53 0 155 -21 198 -41 25 -12 26 -15 21
-65 l-7 -54 38 -15 c56 -24 78 -17 93 30 35 102 83 373 85 472 2 102 2 103
-28 132 -49 48 -97 49 -179 7z m54 -225 c0 -15 -3 -49 -6 -75 -9 -65 -25 -71
-129 -49 l-85 17 37 39 c61 64 112 97 150 97 30 0 33 -3 33 -29z"/>
<path d="M9822 14824 c-54 -37 -250 -323 -258 -376 -8 -47 20 -108 50 -108 16
0 36 26 90 121 81 141 98 165 114 155 17 -10 15 -38 -9 -155 -19 -93 -19 -104
-5 -126 20 -30 78 -50 104 -36 11 6 34 32 51 59 45 70 188 169 166 115 -30
-73 -65 -177 -65 -193 0 -24 79 -92 103 -88 12 2 34 44 76 148 80 197 124 292
147 314 18 19 17 20 -30 62 l-49 43 -36 -15 c-58 -24 -174 -100 -260 -170
l-81 -65 0 63 c0 35 5 81 11 103 20 77 21 85 15 109 -5 20 -17 29 -58 41 -28
8 -52 15 -53 15 0 0 -11 -7 -23 -16z"/>
<path d="M10551 14639 c-148 -29 -271 -183 -271 -340 0 -69 15 -104 64 -146
71 -64 238 -100 336 -73 54 14 129 87 175 171 26 46 30 64 30 129 0 64 -4 82
-27 121 -63 107 -186 162 -307 138z m144 -128 c47 -21 95 -73 95 -104 0 -36
-40 -106 -83 -143 -109 -94 -201 -100 -277 -20 -61 66 3 216 115 267 51 24 99
24 150 0z"/>
<path d="M13163 14547 c-74 -49 -88 -87 -87 -232 1 -183 59 -435 165 -705 55
-143 110 -235 160 -271 44 -31 132 -32 200 -2 l45 21 18 -32 c10 -17 52 -92
94 -166 97 -173 234 -382 268 -409 37 -29 96 -45 137 -37 20 4 68 23 107 42
117 59 137 121 77 236 -39 73 -213 345 -298 466 -33 45 -59 86 -59 91 0 4 10
16 21 27 39 34 79 97 79 123 0 42 -52 140 -117 221 -154 190 -579 566 -725
641 l-36 19 -49 -33z m136 -90 c77 -36 191 -135 427 -371 193 -193 236 -241
262 -295 46 -92 41 -135 -18 -166 -28 -15 -29 -14 -61 28 -73 94 -215 265
-258 310 -82 87 -148 102 -196 45 -43 -51 -33 -97 74 -363 102 -254 101 -243
24 -264 -83 -23 -167 45 -237 193 -52 109 -76 180 -116 346 -65 271 -84 447
-55 515 23 58 65 64 154 22z"/>
<path d="M11050 14511 c-49 -7 -70 -31 -70 -84 0 -43 -108 -232 -167 -294 -29
-30 -53 -59 -53 -64 0 -21 31 -69 51 -80 37 -19 65 -2 119 73 49 70 52 72 88
69 25 -2 47 -13 70 -34 53 -50 113 -133 127 -174 15 -43 35 -52 70 -29 50 33
17 116 -79 204 -26 24 -46 45 -44 46 2 1 30 10 63 20 116 35 195 94 195 146 0
122 -186 223 -370 201z m227 -141 c46 -20 46 -20 27 -41 -10 -12 -45 -34 -76
-50 -46 -23 -71 -29 -123 -29 -36 0 -65 4 -65 8 0 15 77 129 92 136 22 9 97
-3 145 -24z"/>
<path d="M2425 14134 c-79 -8 -322 -45 -420 -64 -55 -11 -137 -24 -183 -30
-46 -5 -102 -15 -125 -21 -56 -15 -340 -125 -400 -156 -58 -29 -123 -95 -183
-185 -66 -99 -90 -163 -108 -283 -9 -60 -28 -152 -43 -205 -20 -75 -26 -121
-28 -218 -1 -107 -4 -126 -21 -142 -17 -18 -174 -71 -292 -100 -60 -15 -77
-46 -76 -135 1 -55 11 -94 44 -185 65 -177 108 -330 120 -427 6 -48 13 -102
15 -119 5 -30 5 -30 -56 -42 -34 -6 -64 -14 -67 -16 -21 -22 -6 -190 21 -223
15 -20 46 -16 195 21 75 19 179 41 231 47 l93 13 21 -30 c44 -61 121 -134 161
-154 106 -51 352 -87 467 -69 86 13 164 52 224 113 75 75 94 122 120 288 6 36
6 37 77 53 39 9 160 20 270 26 l199 10 64 -60 c73 -68 175 -132 261 -163 51
-18 79 -21 202 -20 163 1 207 11 299 71 114 73 167 149 204 288 12 46 27 83
33 83 75 0 420 35 498 50 57 11 184 27 283 35 184 15 302 31 343 46 12 5 27
19 33 32 22 49 -68 163 -148 187 l-38 12 -39 136 c-74 260 -154 428 -239 509
-98 93 -219 140 -382 149 -149 8 -160 10 -174 42 -7 15 -71 108 -142 208 -110
154 -154 204 -297 345 -181 179 -224 209 -362 255 -84 27 -89 28 -350 30 -146
1 -283 0 -305 -2z m405 -74 c142 -12 259 -41 328 -83 65 -39 270 -227 363
-331 37 -43 93 -115 124 -162 31 -46 75 -106 96 -131 21 -26 39 -50 39 -53 0
-3 -33 -5 -72 -5 l-73 0 0 -30 c0 -37 31 -55 95 -55 25 0 70 -7 100 -15 30 -8
85 -15 121 -15 l66 0 6 -67 c9 -113 39 -182 97 -224 42 -31 202 -58 297 -50
l83 6 12 -29 c10 -24 9 -31 -2 -34 -64 -22 -82 -118 -32 -173 21 -24 39 -32
73 -36 46 -5 46 -5 61 -59 9 -30 12 -56 9 -59 -4 -2 -61 -11 -127 -20 -177
-24 -411 -64 -479 -82 -33 -8 -119 -18 -191 -22 l-132 -6 -17 47 c-24 68 -125
216 -195 288 -74 74 -135 104 -246 120 -78 11 -83 11 -182 -20 -127 -39 -294
-146 -354 -225 -47 -63 -85 -173 -100 -292 -11 -87 -13 -93 -37 -97 -15 -3
-89 -15 -166 -26 -77 -11 -156 -25 -175 -30 -59 -16 -67 -13 -75 27 -9 48 -58
172 -101 253 -42 81 -114 164 -173 202 -44 28 -46 28 -204 28 -182 0 -209 -5
-373 -72 -150 -61 -192 -94 -238 -191 -71 -151 -82 -249 -41 -379 10 -32 16
-60 13 -64 -6 -5 -221 -44 -225 -40 -1 1 -7 51 -13 111 -6 61 -15 126 -20 145
-14 49 -14 47 29 69 93 48 147 154 139 275 -6 88 -32 141 -93 193 -25 20 -45
40 -45 44 0 3 31 18 70 31 62 22 70 23 70 9 0 -25 30 -135 39 -144 5 -5 19 8
31 28 22 35 22 39 10 148 -18 159 -9 338 23 457 14 52 30 133 36 180 13 107
81 250 152 322 54 54 99 78 275 148 147 59 200 74 339 94 55 9 136 22 180 31
123 23 386 56 525 64 69 5 134 9 145 9 11 1 72 -3 135 -8z m1426 -940 c34 -17
81 -48 105 -70 l44 -39 -68 -1 c-104 0 -173 44 -193 125 -7 27 -6 28 22 21 16
-4 57 -20 90 -36z m-3579 -522 c45 -46 82 -118 83 -157 0 -24 -48 -106 -57
-97 -2 2 -22 55 -44 117 -36 107 -49 179 -31 179 4 0 27 -19 49 -42z m2621
-195 c39 -25 86 -63 94 -78 5 -9 -6 -21 -35 -37 -42 -25 -134 -55 -142 -46 -2
2 -2 43 2 91 6 83 7 87 30 87 13 0 36 -8 51 -17z m1430 -37 c41 -22 78 -64 61
-71 -8 -2 -125 -16 -261 -30 -135 -14 -275 -31 -310 -39 -59 -14 -221 -30
-405 -40 l-83 -4 -8 31 -8 32 120 7 c70 5 203 24 321 47 110 22 234 43 275 46
41 4 102 12 135 20 81 17 130 18 163 1z m-1703 -101 c26 -20 43 -41 38 -45 -4
-5 -47 -12 -95 -17 l-88 -9 0 36 c0 27 9 47 37 79 l36 43 13 -24 c7 -14 34
-42 59 -63z m-1407 9 l31 -6 -20 -27 c-17 -23 -38 -116 -39 -169 0 -7 -36 27
-80 75 -44 48 -80 91 -80 95 0 27 115 47 188 32z m142 -48 c14 -6 37 -34 52
-62 l28 -51 -53 -35 c-56 -37 -123 -66 -132 -56 -4 3 3 54 14 112 12 59 21
109 21 112 0 6 35 -4 70 -20z m1700 -12 c15 -46 7 -137 -15 -170 l-16 -25 -37
27 c-20 15 -61 48 -91 73 -60 50 -62 47 40 75 30 9 64 25 74 36 25 28 32 25
45 -16z m-1991 -157 l25 -27 -30 5 c-16 2 -60 7 -98 11 l-68 6 5 38 c3 22 14
52 26 69 l21 29 48 -51 c26 -29 58 -64 71 -80z m1662 -75 c6 -18 9 -35 7 -37
-9 -10 -107 18 -140 40 -32 21 -97 120 -86 130 2 1 46 9 98 17 l95 14 8 -66
c4 -36 12 -80 18 -98z m-509 46 c10 -23 16 -43 14 -45 -2 -3 -82 -9 -177 -14
-96 -5 -194 -13 -219 -19 -73 -15 -80 -13 -80 19 l0 29 113 21 c103 20 281 47
317 50 9 0 22 -17 32 -41z m-752 -51 c0 -23 -8 -50 -19 -66 -11 -15 -23 -39
-26 -54 -4 -15 -10 -27 -14 -27 -4 0 -33 27 -66 60 -51 52 -56 60 -39 66 44
14 123 55 135 70 17 21 29 1 29 -49z m-355 -29 c2 -2 -7 -33 -19 -69 l-22 -66
-40 19 c-21 11 -50 30 -62 42 -23 20 -52 67 -52 82 0 7 188 -1 195 -8z m154
-102 l73 -74 -48 -21 -48 -22 -53 22 c-29 12 -53 25 -53 29 0 4 10 19 21 34
15 19 18 31 11 38 -11 11 3 68 17 68 3 0 40 -33 80 -74z m-581 -101 c-2 -2
-59 -15 -128 -30 -69 -14 -159 -34 -200 -44 l-75 -18 -9 34 c-4 18 -6 39 -3
46 5 14 95 34 272 63 55 9 102 18 105 20 5 5 43 -66 38 -71z"/>
<path d="M2420 14014 c-41 -7 -109 -18 -150 -23 -119 -15 -139 -56 -105 -211
8 -36 42 -198 75 -360 34 -162 66 -316 71 -342 l11 -47 46 5 c26 4 137 21 247
40 299 50 386 62 545 74 80 7 194 18 255 25 154 19 169 41 120 179 -39 111
-119 219 -315 424 -238 249 -215 238 -505 245 -164 4 -239 2 -295 -9z m397
-84 c67 -7 75 -11 137 -64 37 -31 74 -56 84 -56 20 0 235 -206 305 -293 47
-58 98 -148 122 -218 l13 -37 -46 -6 c-26 -3 -146 -15 -267 -26 -121 -11 -274
-29 -340 -39 -66 -11 -158 -23 -205 -27 -47 -4 -109 -15 -139 -25 -68 -24 -98
-24 -105 -1 -3 9 -12 67 -21 127 -9 61 -32 175 -50 255 -61 263 -80 371 -66
379 7 5 65 16 129 25 64 10 124 19 132 21 22 4 235 -6 317 -15z"/>
<path d="M9126 13484 c-3 -16 -9 -90 -12 -164 -7 -148 3 -316 42 -650 25 -219
38 -463 53 -990 9 -315 15 -350 62 -365 25 -8 39 1 309 201 115 84 219 159
233 165 19 9 32 7 63 -9 136 -69 649 -192 707 -169 21 8 31 81 23 168 -9 84
-52 263 -100 414 -30 93 -33 111 -20 118 33 18 174 129 255 200 82 72 149 145
149 164 0 32 -118 114 -465 324 -613 372 -1060 594 -1239 615 -52 6 -53 6 -60
-22z m263 -707 c39 -97 71 -182 71 -187 0 -6 74 -190 165 -410 91 -220 165
-404 165 -408 0 -4 -15 -14 -32 -21 -49 -22 -261 -166 -353 -239 -44 -36 -84
-68 -90 -72 -7 -6 -10 77 -11 243 -1 268 -16 495 -64 927 -15 146 -31 353 -34
460 l-7 195 59 -155 c33 -85 91 -235 131 -333z m110 174 c99 -131 267 -348
372 -482 298 -378 336 -432 399 -564 37 -79 82 -152 129 -213 40 -52 71 -96
68 -98 -2 -3 -59 7 -126 21 -267 57 -442 121 -473 175 -4 8 -130 323 -279 699
-148 377 -272 689 -275 693 -3 4 -3 8 0 8 2 0 86 -107 185 -239z"/>
<path d="M6375 13380 c-143 -29 -276 -124 -315 -225 -7 -17 -17 -72 -24 -124
l-12 -94 -42 66 c-54 83 -90 109 -157 115 -67 5 -118 -11 -166 -55 -55 -50
-74 -108 -73 -224 l0 -97 -36 -11 c-90 -27 -168 -105 -211 -212 -33 -83 -38
-217 -10 -308 53 -173 224 -282 423 -268 163 11 272 97 308 243 l10 42 43 -15
c89 -31 231 8 295 82 41 46 60 129 43 187 -15 50 -49 83 -127 126 l-59 31 91
1 c50 0 116 5 145 10 127 24 245 117 303 239 27 57 31 77 31 146 0 65 -5 90
-26 135 -72 154 -260 245 -434 210z m233 -121 c101 -49 149 -132 139 -239 -8
-88 -58 -177 -131 -228 -78 -55 -119 -65 -257 -63 -140 1 -162 -7 -195 -70
l-15 -30 -40 23 c-38 21 -99 90 -99 111 0 5 10 17 23 27 46 36 77 112 86 212
11 113 22 142 69 191 103 107 280 135 420 66z m-742 -245 c40 -26 96 -99 108
-140 5 -17 -1 -26 -28 -42 l-35 -21 19 -56 c51 -147 192 -253 266 -200 19 13
27 11 88 -21 77 -41 90 -60 83 -121 -8 -77 -69 -123 -161 -123 -111 0 -259 82
-383 213 -123 130 -187 279 -164 381 15 63 46 113 85 137 42 26 75 24 122 -7z
m-232 -389 l20 -36 -47 -41 c-107 -91 -123 -207 -41 -298 85 -94 249 -100 346
-12 35 32 41 34 54 20 13 -13 14 -22 4 -59 -16 -61 -48 -99 -111 -134 -48 -27
-63 -30 -139 -30 -76 0 -91 4 -147 33 -78 40 -128 84 -156 136 -18 34 -22 57
-22 141 0 93 2 105 33 168 35 72 87 123 143 143 41 14 39 15 63 -31z m218
-317 c-34 -37 -103 -62 -143 -54 -46 9 -96 50 -109 91 -16 48 1 94 49 138 l38
34 96 -91 95 -91 -26 -27z"/>
<path d="M17300 12443 c0 -54 -4 -103 -8 -109 -4 -7 -39 -11 -92 -10 l-85 1
-3 -28 c-4 -30 10 -45 98 -110 41 -31 45 -37 44 -75 0 -27 -10 -54 -26 -79
-15 -21 -29 -53 -33 -70 -6 -30 -4 -33 17 -33 13 0 59 20 104 44 l81 43 26
-53 c15 -29 35 -58 46 -63 17 -10 22 -3 50 75 17 47 31 88 31 92 0 4 35 3 78
-3 84 -12 143 -7 149 12 3 7 -25 41 -61 76 -36 35 -66 71 -66 81 0 9 13 51 29
94 50 132 50 126 1 118 -23 -4 -69 -18 -102 -32 -88 -37 -113 -31 -170 41 -27
33 -62 66 -78 73 l-30 12 0 -97z"/>
<path d="M7420 12230 c0 -111 0 -112 -22 -107 -60 14 -116 17 -140 8 -53 -20
-30 -69 57 -127 76 -50 83 -89 30 -168 -15 -22 -25 -51 -25 -71 0 -19 2 -35 4
-35 17 0 99 36 136 60 26 17 50 30 54 30 4 0 15 -19 25 -42 21 -49 57 -86 70
-72 4 5 21 46 37 92 29 83 29 83 59 77 104 -21 195 -17 195 7 0 6 -22 33 -49
59 -93 89 -92 84 -40 221 16 43 29 82 29 87 0 15 -53 3 -138 -30 -41 -16 -82
-29 -92 -29 -11 0 -33 15 -49 33 -16 17 -44 49 -63 69 -18 20 -43 39 -55 43
-23 6 -23 6 -23 -105z"/>
<path d="M15280 12179 c-69 -12 -165 -56 -213 -99 -47 -41 -159 -225 -187
-310 -73 -214 37 -493 278 -704 132 -114 447 -326 487 -326 11 0 56 24 100 54
44 29 166 110 270 179 275 182 381 282 454 428 84 167 77 348 -21 547 -53 109
-110 171 -190 208 -59 27 -71 29 -188 29 -142 0 -200 -17 -285 -82 -43 -32
-50 -35 -69 -23 -90 57 -118 71 -171 85 -78 20 -195 27 -265 14z m869 -94
c177 -62 308 -302 274 -502 -28 -163 -126 -284 -373 -464 -257 -187 -344 -239
-400 -239 -58 0 -226 97 -367 212 -236 192 -315 325 -315 533 0 158 43 266
141 359 154 143 353 141 562 -7 72 -50 93 -46 183 33 37 33 68 60 69 60 1 0
20 7 42 15 52 18 132 19 184 0z"/>
<path d="M12245 11885 c-147 -19 -246 -35 -254 -40 -4 -2 -61 -11 -127 -20
-99 -14 -144 -26 -274 -77 -147 -57 -158 -64 -216 -122 -88 -89 -132 -174
-150 -288 -9 -51 -24 -126 -35 -167 -12 -48 -19 -108 -19 -167 0 -66 -4 -95
-14 -103 -13 -11 -164 -60 -228 -75 -33 -8 -58 -51 -58 -101 0 -21 27 -116 59
-213 39 -115 63 -208 71 -266 12 -96 9 -106 -36 -106 -46 0 -57 -21 -52 -98 8
-113 21 -119 185 -77 54 14 127 29 163 34 l65 10 25 -32 c52 -68 101 -104 164
-125 81 -27 225 -46 292 -39 148 15 263 130 280 279 l7 56 46 12 c25 6 116 15
201 19 l155 8 58 -53 c32 -29 93 -70 135 -91 l77 -38 130 0 c120 0 134 2 188
27 82 38 158 118 184 193 12 33 24 72 27 88 4 17 13 27 24 27 63 0 299 24 357
36 39 8 145 21 236 29 223 20 267 30 275 61 13 50 -37 119 -107 148 -34 14
-37 19 -63 113 -29 104 -77 230 -114 301 -66 124 -219 202 -398 202 -75 0 -63
-11 -185 165 -62 88 -131 171 -217 259 -214 216 -263 238 -562 242 -122 2
-233 -2 -295 -11z m420 -65 c93 -14 161 -37 214 -73 70 -48 259 -236 309 -307
25 -36 65 -91 89 -122 l43 -57 -52 -3 c-45 -3 -53 -6 -56 -24 -4 -29 22 -47
82 -55 80 -10 148 -20 182 -25 30 -4 31 -7 37 -62 12 -140 69 -182 250 -190
120 -5 135 -14 93 -55 -55 -55 -19 -139 63 -149 18 -2 27 -13 37 -40 15 -43
19 -41 -121 -58 -49 -6 -148 -23 -220 -37 -96 -18 -327 -45 -341 -38 -1 0 -18
33 -39 72 -50 97 -138 199 -200 234 -73 41 -167 48 -259 20 -121 -37 -257
-134 -296 -211 -20 -40 -45 -130 -55 -202 -7 -55 0 -51 -152 -73 -61 -9 -125
-20 -141 -25 -29 -8 -30 -6 -36 25 -10 49 -62 172 -97 226 -37 59 -109 126
-143 135 -14 3 -85 4 -158 2 -129 -4 -136 -5 -242 -47 -131 -53 -170 -87 -210
-187 -37 -90 -43 -164 -22 -238 10 -32 15 -60 13 -62 -2 -3 -38 -10 -80 -18
l-76 -13 -6 46 c-3 25 -9 75 -15 111 -7 49 -6 66 3 69 7 2 33 25 58 51 86 88
90 216 8 305 -21 23 -39 45 -39 48 0 9 69 29 80 22 5 -3 10 -16 10 -29 0 -30
20 -86 30 -86 4 0 15 12 25 26 14 22 16 40 10 110 -12 145 -7 249 14 337 11
45 25 113 30 152 12 83 67 197 121 250 35 34 156 93 280 137 86 30 438 87 690
111 77 8 219 6 285 -3z m1402 -1294 l28 -24 -25 -6 c-14 -3 -97 -12 -185 -21
-88 -9 -192 -22 -231 -30 -39 -8 -122 -17 -185 -20 -63 -3 -126 -8 -141 -10
-17 -3 -28 1 -32 12 -9 24 -3 26 81 29 43 2 152 17 243 34 363 66 408 70 447
36z m-2793 -422 c10 -27 7 -34 -19 -34 -13 0 -74 -12 -135 -26 -118 -27 -140
-27 -140 5 0 24 6 26 153 51 131 23 134 23 141 4z"/>
<path d="M12216 11790 c-117 -20 -129 -31 -123 -105 2 -27 31 -182 65 -343 34
-161 62 -295 62 -297 0 -3 12 -2 28 0 331 56 476 77 617 90 240 22 266 26 286
46 24 24 24 55 -2 123 -30 80 -93 170 -179 256 -41 41 -94 98 -118 127 -23 28
-66 66 -94 84 l-52 34 -195 1 c-148 1 -220 -2 -295 -16z m326 -59 l106 -8 57
-47 c32 -26 62 -45 68 -43 5 1 64 -54 131 -123 91 -94 129 -142 154 -191 17
-37 32 -71 32 -77 0 -12 -33 -16 -256 -37 -89 -8 -186 -20 -215 -25 -30 -6
-97 -15 -149 -20 -52 -5 -114 -17 -138 -25 -24 -8 -47 -13 -51 -10 -5 2 -14
42 -21 87 -6 46 -29 162 -50 258 -21 96 -41 189 -43 206 l-6 31 97 15 c116 19
145 19 284 9z"/>
<path d="M3640 11380 c-105 -13 -189 -38 -290 -88 -162 -79 -308 -246 -355
-407 l-12 -40 -94 -8 c-225 -19 -316 -76 -377 -239 -112 -298 98 -588 532
-733 329 -110 915 -124 1273 -30 206 54 341 123 433 222 96 102 124 219 80
337 -42 111 -135 181 -305 231 -49 14 -89 26 -90 28 -1 1 -7 50 -14 109 -15
140 -33 206 -80 303 -88 179 -259 287 -497 315 -98 11 -110 11 -204 0z m238
-76 c222 -45 391 -192 459 -398 23 -73 27 -99 30 -261 2 -99 0 -200 -4 -225
-8 -44 -10 -46 -83 -82 -237 -118 -551 -125 -908 -22 -307 89 -419 200 -382
377 21 102 140 322 225 416 79 88 254 178 388 200 84 14 192 12 275 -5z"/>
<path d="M376 11219 c-3 -34 -6 -82 -6 -106 l0 -45 -69 7 c-89 9 -111 2 -111
-34 0 -29 27 -59 92 -102 68 -44 71 -90 12 -170 -21 -28 -34 -99 -19 -99 13 0
95 37 138 62 26 15 51 28 56 28 4 0 16 -18 26 -39 17 -38 61 -89 69 -80 2 2
17 42 34 89 l30 85 38 -2 c22 -1 69 -3 106 -5 102 -5 105 8 25 87 -46 45 -67
73 -67 90 0 14 14 58 30 100 17 42 30 85 30 97 0 18 -4 20 -30 14 -17 -3 -65
-19 -107 -36 -93 -37 -115 -32 -169 41 -37 50 -69 79 -90 79 -6 0 -14 -26 -18
-61z"/>
<path d="M17352 11005 c-62 -19 -89 -40 -112 -86 -38 -74 -25 -163 32 -216 60
-56 253 -101 478 -112 l135 -6 -82 -13 c-184 -29 -320 -98 -454 -232 -85 -84
-102 -107 -147 -200 -74 -150 -87 -206 -87 -380 0 -121 4 -158 23 -225 64
-225 204 -403 370 -471 l57 -23 -2 -60 c-3 -105 -31 -123 -122 -77 -53 27
-151 45 -151 28 0 -5 -11 -12 -23 -16 -29 -7 -47 -60 -47 -136 0 -79 34 -107
197 -159 239 -76 390 -96 673 -88 286 8 504 51 686 136 77 37 81 40 87 77 15
87 -5 174 -44 194 -34 19 -131 11 -186 -14 l-52 -25 -42 66 c-23 36 -47 80
-54 96 -12 28 -11 32 22 60 47 41 162 217 201 308 l33 74 93 -3 c103 -4 181
11 277 54 93 42 90 31 87 270 l-3 209 -63 31 c-78 39 -187 63 -313 71 l-97 6
-12 41 c-48 160 -171 272 -399 361 -67 26 -121 52 -121 57 0 6 7 7 18 3 78
-35 164 -48 312 -49 168 -1 234 11 300 56 58 40 75 72 75 141 0 109 -55 163
-191 188 -133 25 -372 -17 -518 -91 -43 -22 -82 -40 -87 -40 -5 0 -30 15 -56
34 -101 71 -255 134 -393 160 -99 19 -239 20 -298 1z m783 -535 c166 -27 223
-69 301 -225 25 -49 50 -95 55 -101 11 -14 1 -24 -23 -24 -17 0 -18 -6 -13
-57 5 -45 0 -87 -24 -188 -23 -101 -27 -132 -18 -139 10 -7 10 -23 0 -80 -7
-39 -12 -89 -13 -111 0 -29 -6 -44 -20 -52 -11 -7 -36 -42 -57 -78 -20 -36
-43 -65 -50 -65 -28 0 -23 -24 13 -62 29 -30 33 -37 15 -28 -51 26 -130 8
-278 -63 -125 -59 -147 -67 -234 -77 -87 -10 -99 -9 -142 9 -66 28 -142 81
-215 148 l-62 58 152 0 c133 0 162 3 223 23 103 34 172 77 246 153 179 180
228 465 121 693 -43 90 -101 157 -186 214 -63 42 -72 51 -53 55 44 8 203 7
262 -3z m-379 -102 c155 -57 281 -217 300 -381 8 -70 -17 -182 -58 -259 -138
-259 -514 -393 -691 -247 -62 51 -90 118 -95 227 -5 108 8 184 48 281 61 148
159 268 282 344 38 23 68 48 68 55 0 17 74 7 146 -20z m1226 -358 c191 -59
251 -182 145 -297 -67 -73 -192 -122 -309 -123 l-48 0 0 219 c0 201 2 220 18
224 29 8 134 -5 194 -23z"/>
<path d="M6705 10799 c-165 -27 -231 -80 -347 -274 -109 -182 -116 -337 -22
-534 85 -180 214 -310 498 -500 138 -93 205 -131 230 -131 20 0 468 294 572
376 311 242 384 523 220 842 -83 160 -174 221 -341 230 -133 7 -237 -23 -331
-94 -17 -13 -34 -24 -38 -24 -3 0 -25 13 -47 30 -55 40 -130 66 -223 79 -86
12 -100 12 -171 0z m905 -115 c99 -54 192 -187 220 -315 7 -32 11 -92 8 -138
-10 -173 -122 -315 -414 -523 -202 -144 -293 -198 -343 -205 -88 -12 -320 135
-506 322 -154 153 -202 267 -192 450 6 109 29 181 82 260 128 191 375 229 580
89 93 -64 100 -67 128 -60 14 3 57 33 94 66 81 72 131 91 224 86 49 -2 79 -10
119 -32z"/>
<path d="M14883 10396 c-147 -34 -265 -114 -347 -238 l-55 -81 -133 -1 c-158
-1 -191 -12 -196 -64 -8 -77 72 -173 180 -214 l58 -23 0 -149 c0 -328 69 -564
240 -820 87 -129 163 -208 263 -270 158 -99 308 -139 517 -138 259 0 508 74
712 212 146 97 247 234 306 412 43 129 56 249 48 438 -10 238 -16 300 -33 300
-20 0 -105 -45 -200 -106 -151 -97 -227 -128 -359 -144 -157 -20 -291 11 -374
86 -72 65 -103 151 -120 332 -12 126 -45 244 -88 312 -39 62 -114 125 -170
145 -66 23 -175 27 -249 11z m226 -87 c55 -23 118 -85 149 -146 32 -62 51
-149 62 -283 17 -200 36 -263 106 -340 110 -121 325 -139 657 -55 76 19 139
35 141 35 2 0 -1 -16 -7 -35 -6 -19 -17 -35 -24 -35 -8 0 -13 -8 -12 -17 4
-44 -2 -83 -15 -96 -13 -13 -12 -17 8 -36 27 -25 52 -26 108 -4 35 14 38 18
22 24 -10 4 -13 8 -6 8 7 1 29 -6 48 -14 53 -22 43 -49 -19 -53 -57 -4 -60
-15 -8 -30 21 -7 44 -19 51 -27 19 -23 -2 -19 -83 16 -84 37 -135 46 -160 27
-16 -12 -17 -16 -3 -48 10 -26 27 -41 61 -58 45 -22 149 -101 142 -109 -8 -7
-119 19 -175 42 -46 19 -71 23 -113 19 -59 -6 -73 1 -321 134 -153 83 -302
102 -413 53 -46 -21 -114 -91 -144 -149 -31 -61 -45 -158 -32 -228 16 -87 72
-192 130 -247 27 -26 45 -49 40 -53 -5 -3 -37 -7 -70 -10 -41 -3 -70 -11 -87
-24 -84 -67 -258 36 -417 249 -109 144 -176 295 -231 516 -31 126 -43 329 -25
440 39 238 158 420 331 508 123 61 210 69 309 26z m436 -1099 c28 -10 113 -47
190 -83 77 -35 171 -75 208 -87 l69 -22 -29 -30 c-35 -38 -64 -52 -134 -67
-31 -6 -64 -18 -74 -25 -16 -12 -13 -15 33 -37 l50 -24 -14 -33 c-19 -45 -70
-66 -141 -57 -29 3 -53 4 -53 1 0 -3 13 -20 30 -39 l29 -34 -28 -34 c-27 -32
-32 -34 -93 -34 -54 0 -77 6 -139 37 -87 43 -171 122 -215 200 -25 45 -29 64
-29 128 0 64 4 83 30 129 71 128 164 161 310 111z"/>
<path d="M71 10178 c-11 -40 -21 -97 -21 -127 l0 -53 -25 16 -25 16 0 -212 1
-213 34 39 35 39 0 -110 c0 -60 5 -135 11 -166 l12 -57 39 0 c22 0 59 5 83 11
40 10 44 14 54 54 21 84 14 186 -19 275 -37 100 -37 135 -3 208 22 46 27 74
31 158 7 169 -8 194 -117 194 l-68 0 -22 -72z"/>
<path d="M8710 10074 c-93 -25 -158 -61 -213 -116 -115 -115 -217 -302 -217
-397 0 -27 11 -97 25 -156 l26 -107 -24 -52 c-42 -88 -125 -168 -322 -309 -44
-31 -104 -79 -134 -107 -30 -27 -61 -50 -68 -50 -8 0 -56 4 -106 10 -323 33
-297 33 -404 6 -159 -40 -317 -115 -509 -242 -125 -82 -290 -218 -395 -327
l-37 -37 -11 67 c-25 144 -43 193 -103 285 -65 100 -134 178 -184 209 l-33 20
-65 -43 c-75 -50 -77 -55 -96 -248 -13 -130 -29 -231 -40 -243 -4 -5 -41 -15
-81 -23 -98 -20 -148 -44 -202 -93 -57 -52 -75 -52 -233 -1 -68 22 -137 40
-154 40 -29 0 -113 -47 -133 -74 -18 -25 10 -101 105 -285 113 -221 162 -292
218 -318 35 -16 40 -23 45 -63 10 -80 52 -244 78 -308 78 -194 209 -358 352
-441 107 -62 171 -81 274 -81 210 0 400 107 511 288 17 28 35 52 40 52 4 0 45
-7 91 -16 46 -8 94 -14 106 -11 13 2 26 1 29 -4 2 -4 14 -59 25 -121 22 -118
48 -181 97 -236 24 -27 35 -32 56 -26 25 6 86 65 86 84 0 5 4 20 10 34 8 23
11 24 37 12 59 -28 99 -27 143 5 83 60 101 166 54 310 -15 44 -25 81 -23 82 2
2 29 16 59 32 179 93 338 212 490 366 l95 96 39 -33 c100 -87 222 -117 304
-75 64 33 76 53 67 113 -13 95 -14 93 39 129 62 43 73 71 52 142 -16 57 -57
107 -149 182 l-48 40 20 58 c11 31 25 91 30 133 27 190 6 250 -123 346 -44 34
-85 65 -90 69 -5 4 4 14 20 21 16 7 74 42 129 79 140 93 283 242 332 345 48
100 51 143 20 305 -37 197 -39 226 -19 284 24 69 59 90 163 100 152 13 230 59
244 145 9 54 -19 108 -71 137 -53 29 -153 37 -224 17z m115 -95 c24 -6 52 -20
62 -31 17 -19 17 -21 -5 -39 -31 -25 -85 -39 -150 -39 -124 0 -216 -86 -251
-235 -15 -63 -2 -152 34 -249 28 -75 32 -153 11 -213 -22 -64 -102 -183 -166
-250 -63 -66 -93 -84 -216 -133 -43 -17 -90 -40 -105 -51 -32 -22 -49 -24 -73
-6 -16 12 -16 14 3 31 12 11 21 29 21 40 0 13 11 29 28 39 15 9 43 31 62 48
19 17 60 48 90 69 113 79 213 191 236 266 19 64 17 128 -6 194 -12 33 -19 82
-20 124 0 101 50 202 157 313 43 45 92 87 108 94 109 44 115 44 180 28z
m-1265 -1275 c102 -8 191 -17 199 -20 9 -3 7 -9 -10 -23 -20 -16 -24 -29 -25
-87 -1 -38 -7 -89 -13 -114 -5 -25 -13 -115 -16 -200 -5 -147 -10 -191 -22
-234 -8 -29 -62 63 -114 192 -67 169 -108 242 -166 300 -57 55 -80 63 -106 34
-26 -29 -44 -145 -78 -512 -6 -69 -14 -133 -18 -142 -4 -12 -19 16 -45 85 -45
117 -163 397 -174 412 -18 26 -67 55 -92 55 -60 0 -60 -1 -55 -384 2 -195 0
-345 -5 -340 -22 23 -66 130 -126 302 -35 103 -74 207 -87 232 l-22 46 75 61
c41 33 100 76 130 94 30 18 78 47 106 65 73 46 231 117 354 158 58 20 110 36
115 36 6 0 93 -7 195 -16z m-1511 -109 c43 -40 69 -76 94 -128 36 -74 79 -199
96 -275 8 -39 7 -43 -7 -36 -83 35 -215 74 -252 74 -25 0 -50 4 -56 8 -18 11
13 298 42 395 8 26 18 22 83 -38z m1959 -6 c174 -99 225 -149 238 -237 9 -59
-18 -189 -55 -266 -17 -33 -33 -78 -36 -98 -3 -21 -21 -57 -40 -80 -19 -24
-46 -63 -61 -88 -80 -136 -128 -195 -277 -342 -161 -159 -266 -240 -401 -312
-46 -24 -82 -36 -109 -36 -27 0 -48 -7 -62 -20 -12 -11 -60 -36 -106 -55 -135
-55 -284 -67 -415 -34 l-42 11 14 51 c62 227 18 498 -125 755 -25 46 -65 106
-88 134 -48 56 -53 80 -21 103 19 12 21 18 11 34 -10 15 -4 26 41 76 l52 58
17 -61 c40 -145 178 -475 235 -564 30 -47 42 -58 65 -58 32 0 63 28 74 67 9
33 9 160 -1 448 l-7 210 26 -48 c14 -26 46 -98 71 -160 67 -164 139 -306 178
-352 32 -37 35 -39 59 -26 44 23 50 52 58 291 9 275 27 420 53 420 14 0 88
-144 141 -274 20 -50 52 -113 71 -142 40 -60 116 -134 139 -134 8 0 27 24 42
53 26 50 27 59 34 272 8 229 17 304 43 367 9 21 16 46 16 56 0 16 29 39 53 41
4 1 55 -26 115 -60z m-1922 -479 c116 -32 163 -61 250 -152 88 -93 137 -173
186 -303 55 -148 67 -265 50 -487 -6 -71 -11 -91 -30 -111 -14 -14 -26 -44
-31 -75 -15 -93 -106 -189 -239 -249 -48 -22 -75 -27 -167 -31 -101 -4 -118
-2 -190 23 -44 16 -96 38 -116 50 -118 75 -240 267 -303 479 -49 161 -59 232
-51 350 8 122 27 194 67 264 25 44 29 60 24 92 -6 36 -3 41 39 78 71 63 126
84 235 92 159 12 166 11 276 -20z m-811 -96 c56 -19 108 -34 118 -34 20 0 20
2 3 -47 -9 -27 -11 -45 -4 -57 7 -12 2 -46 -16 -115 -14 -54 -26 -117 -26
-141 l0 -43 -25 23 c-28 26 -56 75 -95 160 -13 30 -46 91 -72 135 -27 45 -50
99 -54 124 l-7 44 39 -7 c21 -4 84 -23 139 -42z m3014 -119 c54 -43 91 -92 91
-120 0 -15 -12 -28 -34 -40 l-35 -19 -58 54 c-32 30 -60 55 -62 57 -6 4 41
103 48 103 3 0 26 -16 50 -35z m-42 -282 c80 -79 49 -117 -69 -87 -62 15 -85
29 -121 71 -18 21 -18 22 18 72 l37 51 46 -33 c25 -17 66 -51 89 -74z m-980
-684 c32 -92 31 -143 -7 -180 -31 -31 -50 -30 -78 4 -11 12 -64 198 -59 203 7
8 104 41 112 40 5 -2 20 -31 32 -67z m-235 -54 c23 -67 22 -160 -1 -204 l-18
-35 -18 35 c-18 33 -48 235 -38 252 3 5 17 7 31 5 22 -2 30 -12 44 -53z"/>
<path d="M6184 7476 l-39 -35 45 -44 c37 -37 47 -55 56 -102 15 -74 3 -117
-40 -150 -51 -39 -61 -34 -104 56 -37 76 -38 84 -30 137 15 97 -20 148 -98
139 -57 -6 -109 -53 -125 -110 -13 -49 -7 -76 27 -116 20 -24 34 -31 63 -31
35 0 39 -3 70 -62 24 -45 35 -81 38 -125 6 -61 6 -62 -28 -82 -19 -12 -38 -20
-43 -18 -5 2 -15 23 -22 48 -16 52 -51 77 -84 59 -47 -25 -31 -118 29 -173 69
-62 145 -56 210 19 26 29 51 88 51 120 0 6 18 14 40 18 24 4 54 19 76 38 72
64 92 168 55 287 -21 68 -76 161 -95 161 -7 0 -30 -15 -52 -34z"/>
<path d="M10645 9180 c-299 -47 -527 -226 -614 -483 l-18 -52 -95 -6 c-218
-15 -320 -82 -379 -250 -29 -82 -31 -210 -5 -284 82 -227 362 -416 720 -484
165 -32 297 -42 530 -42 250 0 394 15 568 60 200 52 342 124 430 218 66 71 90
124 96 209 12 180 -98 301 -334 366 l-80 23 -12 110 c-14 138 -33 210 -78 303
-69 142 -207 248 -381 293 -90 23 -260 32 -348 19z m278 -76 c245 -56 410
-221 464 -465 18 -81 22 -379 6 -434 -11 -37 -92 -80 -228 -121 -85 -26 -100
-28 -295 -28 -225 -1 -309 12 -509 76 -271 86 -376 196 -342 360 22 103 141
323 227 417 48 54 167 133 241 161 135 51 303 64 436 34z"/>
<path d="M3162 9041 c-72 -25 -116 -65 -147 -132 l-17 -36 -86 -6 c-230 -14
-506 -161 -737 -392 -199 -199 -320 -403 -371 -625 -14 -63 -29 -123 -32 -132
-6 -15 -22 -7 -107 53 -243 174 -511 252 -695 205 -194 -50 -303 -148 -304
-275 -1 -133 108 -232 327 -295 163 -47 426 -58 600 -26 33 6 61 9 64 7 2 -3
-25 -50 -62 -105 -36 -55 -76 -125 -90 -155 -96 -209 -84 -457 30 -623 71
-102 163 -140 321 -132 74 4 99 10 149 35 110 56 174 145 221 303 29 100 26
322 -8 451 l-25 97 66 -23 c36 -12 122 -45 191 -73 69 -28 160 -58 203 -67
323 -65 771 -33 1106 80 314 105 493 276 623 591 117 285 76 527 -130 769
l-60 70 15 69 c32 158 -49 293 -214 357 -77 29 -212 32 -297 6 -57 -18 -116
-63 -128 -97 -4 -12 -13 -7 -43 19 -46 40 -119 74 -193 90 -72 15 -108 14
-170 -8z m137 -71 c91 -17 193 -79 223 -134 24 -44 47 -148 38 -171 -24 -64
-114 -105 -230 -105 -124 0 -211 71 -243 199 -27 106 18 177 133 212 14 4 26
8 26 8 1 1 25 -3 53 -9z m606 -1 c68 -12 140 -46 172 -81 59 -63 84 -186 49
-240 -44 -66 -172 -87 -298 -48 -165 51 -243 172 -188 289 20 43 28 50 78 69
66 24 105 26 187 11z m-896 -233 c30 -120 88 -199 174 -237 43 -19 69 -23 152
-24 128 0 189 20 254 82 l46 45 35 -21 c144 -89 259 -110 395 -72 l70 20 55
-57 c97 -100 173 -293 174 -442 0 -88 -24 -169 -92 -305 -52 -104 -109 -191
-166 -253 -43 -46 -208 -162 -232 -162 -21 0 -210 100 -285 150 -157 106 -284
231 -334 329 -12 25 -31 74 -40 109 -10 34 -21 65 -26 68 -4 2 -43 -9 -86 -25
-43 -17 -129 -44 -192 -60 -63 -17 -120 -36 -127 -43 -16 -16 -7 -68 11 -68
12 0 292 66 323 75 7 3 25 -22 43 -58 91 -182 267 -345 514 -478 41 -22 75
-44 75 -48 0 -12 -142 -48 -271 -70 -263 -45 -576 -56 -729 -27 -132 25 -561
170 -612 206 -15 11 -39 20 -53 20 -21 0 -25 -5 -25 -29 0 -16 14 -61 30 -100
72 -168 89 -342 51 -504 -25 -104 -51 -159 -100 -210 -56 -60 -103 -80 -199
-85 -104 -6 -155 12 -212 74 -108 118 -132 284 -71 485 40 128 199 355 297
424 73 51 134 104 134 117 0 18 -92 -2 -170 -37 -98 -44 -132 -52 -270 -66
-286 -29 -586 21 -714 119 -123 93 -107 191 44 267 79 40 166 58 248 51 94 -8
231 -53 352 -118 85 -45 124 -70 260 -172 28 -21 45 -27 63 -22 30 7 42 38 85
217 49 207 122 343 295 544 89 105 177 185 277 252 66 45 236 127 310 151 88
28 96 30 166 31 l62 1 11 -44z"/>
<path d="M3247 8869 c-21 -13 -47 -68 -47 -101 0 -36 38 -102 69 -121 17 -10
50 -17 80 -17 41 0 56 5 82 28 62 55 45 154 -33 202 -36 22 -120 27 -151 9z"/>
<path d="M3774 8870 c-50 -20 -69 -92 -39 -150 24 -46 62 -70 112 -70 86 0
131 87 88 170 -26 51 -102 74 -161 50z"/>
<path d="M12963 8335 c-102 -31 -186 -105 -230 -202 -51 -110 -28 -255 57
-357 99 -120 178 -156 360 -165 l125 -6 -55 -29 c-100 -51 -130 -93 -130 -178
0 -30 9 -71 19 -95 46 -100 212 -160 329 -119 l41 15 6 -43 c9 -56 56 -138 98
-170 73 -56 123 -71 242 -71 104 0 114 2 182 34 168 79 253 245 223 437 -13
81 -54 175 -99 227 -29 33 -138 97 -165 97 -8 0 -10 26 -7 80 6 145 -31 229
-122 275 -79 39 -161 32 -216 -18 -13 -12 -41 -48 -62 -80 -42 -65 -41 -67
-54 58 -10 86 -39 147 -99 203 -59 56 -105 82 -185 106 -66 19 -199 20 -258 1z
m202 -76 c163 -30 246 -120 259 -279 10 -111 22 -147 72 -200 l45 -48 -34 -43
c-29 -39 -89 -89 -106 -89 -4 0 -15 16 -26 36 -30 56 -56 64 -197 62 -116 -2
-126 -1 -185 26 -120 55 -196 166 -197 286 -1 99 45 170 140 219 72 37 141 46
229 30z m625 -264 c64 -33 106 -124 97 -209 -13 -125 -98 -263 -229 -376 -206
-175 -401 -204 -471 -69 -21 40 -17 92 10 121 10 11 43 33 73 48 49 25 58 26
75 14 81 -60 240 70 279 229 6 24 2 30 -29 48 -35 21 -35 21 -20 55 27 65 66
110 120 138 38 20 58 20 95 1z m266 -430 c67 -67 96 -141 98 -250 1 -70 -3
-87 -29 -140 -53 -106 -191 -181 -320 -173 -132 9 -235 95 -235 198 0 44 16
45 62 5 42 -35 118 -65 168 -65 84 0 180 57 211 124 39 87 15 173 -70 248
l-53 45 21 41 21 40 37 -11 c22 -7 60 -33 89 -62z m-158 -114 c63 -59 69 -122
16 -181 -59 -65 -144 -64 -218 1 l-34 30 91 89 c51 49 97 90 102 90 6 0 25
-13 43 -29z"/>
<path d="M17205 8116 c-75 -22 -107 -35 -140 -60 -16 -12 -42 -27 -58 -34 -15
-6 -42 -33 -60 -59 -17 -26 -42 -57 -54 -69 -13 -12 -23 -29 -23 -38 0 -10
-13 -34 -30 -54 -57 -72 -109 -224 -110 -320 0 -21 -4 -31 -11 -27 -20 13 -80
-6 -114 -36 -110 -97 -25 -309 122 -309 21 0 44 4 52 9 11 7 23 -5 51 -47 89
-137 253 -257 412 -303 139 -39 24 -15 -199 42 -130 33 -250 59 -267 57 -26
-3 -33 -9 -43 -43 -7 -22 -15 -52 -18 -67 -3 -15 -14 -29 -25 -33 -29 -9 -26
-60 10 -217 17 -71 30 -135 30 -142 0 -7 -21 -34 -46 -60 l-46 -48 4 -82 c4
-108 38 -168 113 -206 l50 -25 64 -260 c35 -143 68 -274 73 -291 6 -24 17 -34
48 -44 l39 -13 -87 -91 c-48 -51 -138 -154 -201 -229 l-115 -138 -40 39 c-97
93 -201 142 -260 122 -47 -15 -68 -42 -73 -93 -11 -91 44 -177 161 -255 170
-114 295 -78 283 79 -5 56 -4 57 47 116 28 33 97 114 153 180 57 66 131 146
167 177 l64 56 134 -49 c254 -94 404 -133 549 -147 l76 -7 74 62 c40 34 151
112 246 172 95 61 220 144 278 185 57 41 109 74 114 74 7 0 187 -74 266 -109
119 -54 227 -108 270 -135 44 -29 52 -38 53 -66 0 -18 3 -35 6 -38 3 -3 6 42
6 99 0 64 -4 99 -9 90 -7 -11 -15 -10 -45 8 -53 33 -134 72 -296 141 -80 34
-148 65 -152 69 -4 3 42 37 103 75 61 37 113 74 116 82 3 7 -30 118 -72 245
-114 347 -143 466 -185 784 -12 94 -47 171 -76 169 -10 -1 -31 -4 -45 -8 -39
-11 -41 8 -8 120 16 54 29 107 29 116 0 15 4 16 28 7 15 -6 60 -11 101 -11
121 1 211 57 231 145 19 86 -32 174 -115 197 -44 12 -165 10 -196 -4 -14 -6
-17 3 -23 55 -11 96 -69 137 -127 90 -22 -18 -24 -26 -24 -118 0 -91 2 -103
33 -162 37 -75 39 -99 12 -189 -10 -37 -24 -86 -30 -110 l-11 -43 -30 26 c-17
14 -41 25 -53 25 -13 0 -52 -22 -88 -49 -64 -49 -164 -115 -243 -161 l-40 -23
53 54 c96 97 154 205 181 340 11 53 14 57 51 68 68 20 108 100 95 190 -8 55
-24 88 -60 121 -22 20 -36 25 -74 23 l-48 -2 -28 59 c-114 238 -351 355 -740
366 -120 3 -173 0 -210 -10z m400 -91 c226 -39 345 -105 439 -243 180 -264
125 -625 -124 -813 -321 -243 -798 -178 -1013 137 -76 112 -92 167 -91 314 0
109 4 136 28 209 34 104 92 168 175 196 60 20 149 15 188 -10 23 -16 133 -21
133 -7 0 4 -14 24 -31 44 -38 47 -103 68 -208 68 -69 1 -74 2 -57 15 42 32
174 6 298 -56 57 -29 128 -39 128 -19 0 6 -7 25 -16 42 -17 33 -126 90 -197
103 -20 4 -40 12 -43 17 -8 12 33 4 123 -23 93 -29 151 -80 187 -164 7 -16 56
43 56 68 0 36 -34 81 -86 116 l-49 33 35 -6 c19 -3 76 -13 125 -21z m1180
-539 c131 -55 14 -198 -141 -173 -45 8 -64 23 -64 54 0 13 -7 37 -14 52 -15
28 -15 28 37 54 58 31 127 35 182 13z m-355 -524 c0 -12 -230 -130 -440 -225
-91 -41 -201 -92 -244 -112 -108 -49 -174 -66 -222 -55 -22 5 -129 21 -239 35
-205 27 -339 52 -435 83 -55 17 -55 17 -52 55 2 20 8 37 13 37 5 0 116 -27
247 -59 249 -63 448 -101 524 -101 59 0 75 7 320 144 197 109 296 170 405 250
l48 36 38 -40 c20 -21 37 -43 37 -48z m139 -84 c6 -17 18 -90 26 -162 26 -220
104 -524 197 -765 39 -99 40 -104 22 -114 -11 -6 -168 -110 -349 -231 -182
-122 -380 -254 -440 -294 -61 -39 -128 -85 -150 -102 l-40 -30 -95 16 c-137
22 -220 47 -445 134 -110 42 -217 83 -237 89 -32 11 -39 18 -48 54 -6 23 -20
74 -30 112 -11 39 -35 137 -53 218 l-35 148 32 13 c67 28 113 116 97 186 -17
75 -63 120 -143 140 l-46 12 -16 66 c-9 37 -25 109 -35 160 -17 85 -17 93 -2
87 45 -18 242 -57 409 -79 103 -15 224 -33 269 -41 110 -20 130 -19 215 11 97
35 436 189 677 308 107 53 198 96 202 96 4 0 12 -14 18 -32z m-1745 -667 c85
-13 116 -37 116 -91 0 -68 -82 -110 -147 -76 -51 26 -88 126 -67 180 4 11 10
13 18 7 6 -5 42 -14 80 -20z m-419 -1270 c22 -10 68 -39 103 -65 34 -25 69
-46 78 -46 8 0 13 -4 10 -9 -4 -5 2 -23 11 -40 14 -24 15 -35 7 -48 -17 -28
-51 -27 -110 3 -101 51 -189 160 -170 209 7 19 22 19 71 -4z"/>
<path d="M17613 7725 c-34 -24 -47 -76 -29 -119 27 -64 109 -58 141 11 40 83
-39 159 -112 108z"/>
<path d="M17199 7651 c-35 -36 -41 -97 -11 -124 50 -45 142 5 142 77 0 75 -76
102 -131 47z"/>
<path d="M17700 7372 c-20 -9 -48 -38 -65 -64 -36 -56 -98 -88 -172 -88 -58 0
-102 24 -132 74 -25 39 -63 55 -86 36 -22 -18 -19 -29 20 -92 31 -49 43 -59
100 -83 56 -24 72 -27 127 -21 35 4 87 18 116 32 43 21 61 38 97 94 44 66 52
93 37 117 -6 10 -16 8 -42 -5z"/>
<path d="M18185 6566 c-262 -115 -274 -127 -216 -223 16 -26 39 -84 51 -128
30 -116 51 -165 68 -165 8 0 58 27 111 59 53 33 127 74 166 91 38 17 84 40
102 51 l32 20 -45 99 c-24 55 -53 128 -65 162 -36 108 -37 108 -204 34z m155
-138 c17 -51 35 -99 40 -107 6 -11 -12 -24 -71 -52 -43 -21 -103 -54 -134 -73
l-55 -36 -6 28 c-12 56 -47 158 -62 181 -14 23 -14 26 8 40 22 16 229 110 241
111 4 0 21 -42 39 -92z"/>
<path d="M11679 7196 c-92 -32 -166 -104 -198 -190 l-19 -51 -74 -5 c-130 -10
-245 -85 -297 -195 -21 -46 -23 -60 -19 -160 8 -165 44 -234 163 -313 121 -82
259 -112 512 -112 135 0 168 8 178 42 4 13 36 88 70 168 106 245 120 297 120
430 0 112 -1 117 -34 178 -42 78 -110 140 -203 187 -77 38 -134 44 -199 21z"/>
<path d="M14642 6946 c-62 -20 -108 -60 -143 -122 l-31 -54 -62 0 c-278 0
-690 -261 -919 -582 -120 -168 -180 -303 -218 -487 -10 -52 -21 -96 -22 -97
-2 -2 -48 29 -102 68 -248 176 -517 253 -710 203 -245 -64 -358 -241 -254
-398 109 -166 505 -254 877 -197 41 7 75 10 77 8 2 -2 -25 -48 -61 -103 -118
-182 -155 -292 -155 -455 0 -202 86 -372 220 -434 39 -18 64 -21 161 -21 104
0 121 3 172 27 116 54 186 148 230 308 33 122 31 304 -5 445 -14 55 -24 101
-22 103 1 2 79 -27 171 -64 199 -78 231 -88 346 -108 413 -72 1028 27 1301
208 143 95 239 209 328 391 76 155 102 251 102 375 0 181 -57 315 -216 503
-37 45 -38 45 -26 91 18 73 7 176 -25 230 -56 95 -178 163 -312 173 -121 9
-247 -32 -285 -93 l-21 -34 -40 34 c-87 75 -258 114 -356 82z m148 -77 c61
-14 138 -54 178 -92 34 -33 72 -132 72 -189 0 -69 -108 -128 -235 -128 -119 0
-204 69 -241 197 -24 83 -4 143 62 184 62 38 96 44 164 28z m678 -24 c73 -33
99 -58 128 -120 71 -150 -11 -255 -188 -243 -103 8 -180 40 -244 102 -77 75
-87 132 -41 223 39 74 221 94 345 38z m-1002 -165 c6 0 14 -12 17 -28 23 -115
93 -215 175 -250 138 -60 364 -20 428 75 l21 32 64 -40 c35 -22 89 -47 119
-56 71 -22 209 -22 268 1 52 19 64 14 120 -49 89 -101 162 -295 162 -430 0
-148 -104 -383 -242 -547 -39 -46 -147 -127 -217 -163 l-34 -17 -94 47 c-209
103 -415 270 -501 402 -24 38 -47 90 -57 134 -10 39 -23 73 -30 75 -6 3 -47
-9 -89 -25 -42 -17 -125 -43 -184 -57 -120 -30 -147 -47 -137 -87 4 -15 11
-27 15 -27 4 0 81 18 171 39 90 22 165 37 167 33 1 -4 23 -45 50 -91 87 -155
275 -323 495 -441 42 -23 75 -45 72 -50 -8 -12 -148 -48 -275 -69 -185 -31
-367 -44 -548 -38 -153 4 -177 8 -287 40 -173 50 -465 154 -497 177 -31 23
-76 26 -84 6 -3 -7 11 -55 31 -105 76 -195 92 -338 56 -502 -25 -112 -55 -173
-111 -230 -54 -54 -118 -79 -204 -79 -97 0 -134 15 -197 79 -95 97 -127 228
-95 392 31 160 184 413 305 503 30 22 77 63 105 89 l51 49 -54 -7 c-30 -3 -75
-17 -100 -29 -211 -107 -687 -111 -921 -8 -98 43 -170 116 -170 172 0 67 81
137 202 175 92 29 161 31 260 9 139 -32 342 -132 465 -231 85 -68 108 -78 138
-59 23 15 24 19 74 225 38 156 96 277 198 413 189 251 389 409 638 504 78 29
199 55 230 48 11 -2 25 -4 31 -4z"/>
<path d="M14754 6778 c-65 -17 -92 -94 -59 -169 34 -74 131 -103 201 -60 87
53 50 205 -54 227 -51 10 -57 10 -88 2z"/>
<path d="M15245 6768 c-33 -19 -44 -41 -45 -86 0 -101 93 -162 179 -118 71 37
66 162 -9 201 -34 18 -97 19 -125 3z"/>
<path d="M9373 6510 c-147 -74 -413 -415 -563 -721 -85 -174 -87 -253 -9 -324
23 -20 56 -43 75 -51 19 -8 34 -19 34 -25 0 -6 -28 -81 -61 -167 -73 -185
-148 -418 -156 -483 -3 -25 0 -62 6 -82 24 -73 150 -149 250 -151 86 -2 104
27 194 303 41 124 87 274 103 334 l28 107 77 0 c69 0 81 3 109 27 78 65 124
286 139 663 9 223 -1 516 -18 548 -12 23 -79 52 -120 52 -15 0 -55 -14 -88
-30z m101 -40 c37 -14 64 -76 76 -176 12 -93 11 -112 -21 -494 -26 -306 -51
-414 -110 -468 -26 -25 -76 -29 -102 -9 -17 11 -15 25 23 212 22 110 43 229
46 265 11 116 -30 169 -118 155 -52 -9 -70 -34 -203 -280 -62 -113 -117 -211
-123 -217 -16 -16 -87 29 -108 67 -43 80 5 238 131 432 110 168 306 408 383
467 29 22 82 52 99 56 1 0 13 -4 27 -10z"/>
<path d="M10007 6324 c-15 -8 -38 -32 -52 -54 -31 -49 -221 -601 -236 -684
-19 -113 16 -179 104 -193 l39 -6 -6 -39 c-8 -49 -47 -167 -121 -368 -82 -221
-107 -326 -103 -427 3 -71 7 -87 33 -125 86 -123 240 -111 332 25 17 26 41 73
53 104 27 73 65 298 85 502 8 88 18 166 21 174 4 11 21 13 79 9 101 -6 139 3
186 45 43 39 75 95 104 178 47 141 165 572 165 606 0 78 -94 141 -145 99 -29
-24 -55 -87 -80 -193 -13 -57 -29 -117 -35 -133 -16 -41 -50 -74 -77 -74 -39
0 -32 76 22 219 72 192 59 251 -62 274 -28 6 -34 2 -52 -28 -22 -38 -56 -131
-95 -266 -14 -47 -36 -98 -48 -114 -20 -26 -22 -26 -35 -9 -22 30 -15 87 28
221 22 70 43 149 46 175 5 41 2 50 -20 72 -30 30 -85 34 -130 10z m81 -60 c13
-28 7 -59 -49 -251 -48 -162 -34 -221 58 -239 28 -6 34 -3 53 27 11 19 34 79
51 134 49 164 69 211 101 241 29 28 30 28 44 10 23 -32 16 -79 -27 -193 -67
-177 -64 -253 11 -273 81 -22 116 16 166 179 37 119 75 204 95 217 19 12 39
-26 39 -75 0 -26 -14 -84 -31 -131 -17 -47 -58 -175 -91 -285 -69 -229 -100
-302 -134 -317 -18 -9 -55 -8 -140 0 -63 7 -119 10 -123 8 -4 -3 -13 -56 -20
-119 l-13 -113 -51 18 c-29 9 -80 17 -114 18 -38 0 -63 4 -63 11 0 5 14 64 30
129 17 65 30 123 30 128 0 4 -25 19 -55 31 -62 26 -85 52 -85 96 0 51 228 720
255 749 30 33 49 33 63 0z"/>
<path d="M6721 5905 c-147 -33 -305 -99 -386 -160 -25 -19 -49 -35 -54 -35 -5
0 -44 18 -87 40 -150 76 -396 118 -529 90 -133 -27 -180 -75 -180 -182 0 -74
16 -105 75 -146 66 -45 132 -57 300 -56 148 1 235 15 313 49 9 4 17 3 17 -3 0
-5 -39 -24 -87 -42 -144 -53 -242 -109 -309 -175 -61 -59 -115 -148 -128 -211
l-7 -31 -102 -6 c-56 -4 -133 -13 -171 -22 -81 -17 -190 -66 -226 -100 l-25
-24 -2 62 c-1 34 -11 92 -23 130 l-21 67 -65 0 c-78 0 -98 -9 -113 -51 -26
-74 -5 -262 35 -324 24 -36 19 -102 -13 -175 -25 -58 -28 -77 -28 -175 0 -69
5 -118 13 -132 14 -25 67 -43 128 -43 l41 0 13 63 c7 34 12 112 11 172 l-1
110 24 -35 c65 -96 234 -162 406 -159 l95 2 60 -118 c64 -125 155 -257 192
-276 l22 -12 -21 -41 c-11 -23 -36 -66 -56 -97 l-36 -56 -50 23 c-37 17 -69
24 -116 24 -36 0 -70 -4 -75 -8 -18 -13 -48 -91 -47 -124 2 -89 11 -107 65
-135 287 -145 802 -196 1187 -117 90 19 280 79 332 105 63 32 82 95 57 195 -9
33 -17 46 -35 50 -13 3 -24 11 -24 16 0 17 -99 -1 -162 -29 -31 -13 -64 -23
-75 -21 -20 4 -37 47 -46 116 -4 35 -2 44 11 48 44 13 141 65 179 95 103 83
201 245 245 404 29 107 31 319 5 414 -46 168 -103 267 -222 386 -72 72 -108
99 -180 136 -108 56 -160 73 -285 94 -52 9 -96 18 -97 19 -2 2 43 1 99 -2 170
-7 442 42 521 94 79 52 101 146 54 235 -38 71 -93 93 -237 96 -72 2 -139 -3
-179 -12z m-222 -531 l31 -6 -58 -34 c-173 -103 -271 -297 -259 -519 9 -172
63 -292 181 -410 128 -127 276 -179 490 -173 l118 3 -75 -71 c-52 -51 -99 -84
-159 -113 l-84 -42 -105 14 c-93 13 -118 22 -217 71 -146 73 -209 90 -264 71
l-41 -14 38 39 c35 36 40 60 11 60 -6 0 -29 29 -50 65 -21 36 -46 71 -55 78
-12 9 -20 41 -30 117 -7 58 -17 107 -22 109 -6 1 -2 9 8 16 16 12 16 20 -11
144 -22 98 -27 144 -22 185 l6 54 -32 6 -31 6 20 23 c12 12 35 51 52 87 68
145 131 197 267 224 73 15 240 20 293 10z m261 -83 c0 -5 36 -32 81 -61 105
-70 186 -159 244 -271 56 -109 85 -217 85 -319 0 -140 -46 -232 -142 -286 -48
-26 -62 -29 -148 -29 -118 0 -200 26 -305 97 -180 119 -278 316 -248 494 30
172 169 321 346 369 62 16 87 18 87 6z m-1166 -357 c14 -5 16 -35 16 -225 l0
-219 -47 0 c-144 1 -299 75 -342 164 -43 87 -17 156 79 214 84 50 243 86 294
66z"/>
<path d="M109 5757 c-22 -14 -47 -48 -69 -91 l-35 -69 -3 -191 -3 -192 26 -12
c73 -34 155 1 216 92 57 85 83 179 76 273 -13 171 -108 257 -208 190z m108
-112 c36 -99 3 -254 -71 -331 -39 -40 -78 -56 -89 -36 -2 4 0 54 4 112 9 121
35 215 74 266 35 46 62 43 82 -11z"/>
<path d="M3333 5746 c-73 -23 -173 -94 -173 -122 0 -6 9 -31 20 -55 17 -37 20
-66 20 -192 0 -109 -4 -157 -15 -184 -20 -48 -20 -50 18 -73 77 -47 112 -17
122 105 7 86 8 87 41 103 28 13 42 14 82 4 76 -17 160 -52 192 -79 36 -30 60
-27 78 10 12 24 11 31 -2 51 -19 30 -85 62 -156 77 -30 6 -61 13 -68 15 -9 3
3 22 35 57 55 61 93 131 100 186 5 33 1 41 -26 64 -17 14 -48 31 -69 37 -50
14 -148 12 -199 -4z m181 -85 c9 -13 -45 -108 -84 -148 -19 -19 -51 -43 -71
-54 l-37 -18 -6 23 c-3 13 -3 52 1 86 5 49 11 65 29 77 50 32 156 54 168 34z"/>
<path d="M2804 5582 c-159 -57 -240 -239 -187 -426 31 -112 124 -177 233 -162
116 15 243 85 284 155 25 43 35 209 16 275 -36 130 -207 208 -346 158z m193
-112 c57 -34 64 -123 19 -231 -44 -105 -144 -156 -225 -114 -69 35 -90 179
-38 267 15 26 38 53 50 60 72 42 145 48 194 18z"/>
<path d="M2401 5451 c-45 -70 -97 -179 -128 -270 -15 -44 -30 -81 -33 -81 -10
0 -90 153 -90 172 0 10 -7 32 -15 48 -12 23 -22 30 -46 30 -44 0 -98 -26 -108
-52 -13 -34 -31 -240 -31 -351 0 -93 1 -97 31 -132 22 -25 39 -35 60 -35 l29
0 0 170 c0 143 2 170 15 170 20 0 41 -34 71 -120 43 -123 48 -130 107 -130 56
0 77 26 77 98 0 42 9 76 33 131 17 40 37 73 42 72 6 -1 15 -35 21 -75 19 -123
29 -144 75 -156 22 -6 55 -10 72 -8 38 4 38 -19 -3 248 -17 113 -30 224 -28
248 3 47 4 46 -74 61 l-48 8 -29 -46z"/>
<path d="M1595 5375 c-36 -18 -61 -53 -113 -160 -95 -193 -172 -424 -172 -516
0 -60 31 -89 95 -89 41 0 42 0 67 60 23 51 35 65 89 100 62 40 169 80 215 80
18 0 28 -10 43 -45 22 -49 39 -55 100 -34 23 8 31 17 31 35 0 62 -132 418
-190 512 -42 69 -100 89 -165 57z m116 -291 c28 -61 29 -67 14 -84 -13 -14
-147 -70 -168 -70 -10 0 34 145 54 177 39 63 64 57 100 -23z"/>
<path d="M3386 4478 c-3 -13 -6 -62 -6 -110 0 -49 -1 -88 -3 -88 -2 0 -29 5
-61 11 -78 14 -116 5 -116 -27 0 -38 16 -61 64 -89 89 -52 100 -92 48 -175
-32 -52 -43 -110 -19 -110 17 0 113 46 147 70 38 27 47 25 60 -14 13 -41 47
-86 63 -86 7 0 26 39 44 88 34 97 23 91 140 77 70 -9 113 -1 113 20 0 9 -27
41 -60 73 -70 68 -73 84 -35 177 14 33 28 75 31 92 6 33 6 33 -27 27 -19 -4
-65 -20 -103 -35 -37 -16 -77 -29 -88 -29 -20 0 -66 42 -118 107 -34 42 -65
51 -74 21z"/>
<path d="M14854 4215 c-3 -19 -4 -41 -1 -48 3 -9 -4 -12 -27 -9 -30 4 -34 1
-49 -40 -9 -24 -17 -49 -17 -56 0 -6 -8 -11 -17 -10 -48 4 -53 -1 -53 -46 0
-79 56 -123 169 -134 79 -8 94 -27 88 -108 -3 -40 -16 -74 -65 -160 -108 -189
-140 -342 -108 -503 20 -97 51 -172 105 -251 l40 -58 -61 -22 c-89 -32 -170
-114 -193 -194 -58 -201 88 -370 411 -475 259 -84 728 -139 1088 -128 244 8
358 41 459 136 75 70 92 109 92 216 0 82 -3 95 -31 145 -21 38 -46 66 -82 89
l-51 34 24 31 c38 49 46 108 30 201 -20 111 -19 145 8 195 60 114 207 104 343
-22 112 -105 160 -223 152 -370 -3 -45 -10 -84 -19 -94 -7 -9 -45 -31 -84 -49
-66 -30 -125 -81 -125 -108 0 -7 -3 -21 -6 -33 -4 -15 1 -23 21 -32 32 -15 68
-15 81 -2 7 7 9 1 6 -19 -4 -27 1 -32 67 -71 43 -26 77 -39 88 -36 30 9 112
94 119 123 4 14 2 48 -5 76 -9 40 -8 66 5 136 55 292 -100 625 -346 740 -47
22 -69 26 -155 26 -89 0 -107 -3 -160 -28 -157 -74 -199 -179 -155 -395 26
-129 22 -156 -23 -178 -27 -13 -41 -14 -75 -5 -39 11 -42 14 -42 46 0 19 14
121 31 227 58 371 39 593 -72 808 -99 192 -239 298 -440 332 -284 49 -559
-162 -639 -492 -36 -149 -37 -274 -1 -519 17 -117 31 -222 31 -232 0 -16 -8
-19 -51 -19 -46 0 -55 4 -84 34 -39 42 -99 162 -120 241 -35 135 -15 235 86
440 69 140 99 229 99 293 0 18 -11 66 -24 105 -13 40 -27 98 -31 130 -5 48
-13 66 -43 99 -43 48 -99 78 -146 78 -32 0 -36 -3 -42 -35z m1001 -200 c197
-51 365 -257 421 -517 22 -103 29 -303 15 -428 -12 -99 -57 -339 -65 -347 -2
-2 -28 3 -57 11 -30 8 -74 18 -97 21 -41 7 -44 9 -38 34 48 225 59 303 60 461
1 111 -4 183 -13 220 -25 99 -67 177 -131 244 -54 56 -69 66 -125 81 -46 13
-84 16 -132 12 -111 -9 -139 -22 -224 -103 -43 -41 -82 -74 -88 -74 -19 0 -84
-64 -97 -97 -28 -65 -13 -178 32 -243 13 -20 31 -71 40 -115 9 -44 38 -127 64
-185 26 -58 50 -117 54 -132 l6 -28 -100 0 -100 0 -6 28 c-3 15 -10 43 -14 62
-48 202 -58 505 -21 645 34 130 83 218 170 305 137 140 284 187 446 145z m-62
-267 c108 -32 216 -195 238 -358 18 -144 -7 -413 -57 -609 -15 -58 -51 -150
-91 -233 l-66 -138 -67 0 c-37 0 -92 5 -123 11 -55 11 -57 13 -57 43 0 112
-12 278 -24 330 -15 61 -33 115 -99 296 -19 52 -38 109 -41 126 -7 29 -5 32
33 47 52 21 68 46 83 135 14 81 2 170 -28 203 -14 15 -15 21 -4 34 47 56 174
124 234 125 16 0 47 -5 69 -12z m-549 -1010 c9 -24 23 -78 30 -120 18 -92 34
-125 80 -166 122 -107 557 -136 800 -54 l80 27 22 98 c12 54 25 101 27 103 18
18 192 -61 260 -117 84 -69 126 -166 107 -241 -16 -59 -107 -148 -181 -175
-280 -105 -993 -63 -1399 82 -312 112 -432 288 -300 438 39 44 122 94 195 117
34 11 217 47 252 49 6 1 18 -18 27 -41z m255 11 c6 -18 11 -53 11 -79 l0 -47
-51 -6 c-28 -4 -66 -15 -84 -25 l-32 -20 -22 97 c-11 53 -21 99 -21 104 0 4
42 7 94 7 l94 0 11 -31z m593 -43 c36 -8 80 -22 96 -30 l30 -16 -13 -51 c-8
-28 -16 -53 -18 -55 -2 -2 -17 2 -33 11 -16 8 -49 17 -74 20 -25 4 -57 8 -71
11 l-27 5 16 60 c9 32 19 59 22 59 3 0 35 -7 72 -14z"/>
<path d="M11515 3694 c-22 -2 -164 -18 -315 -34 -193 -20 -401 -34 -695 -46
-447 -18 -475 -22 -475 -67 0 -13 47 -86 112 -172 62 -83 135 -182 164 -222
l52 -72 -35 -93 c-71 -187 -148 -552 -120 -570 12 -8 60 -11 137 -8 58 2 185
31 333 77 l118 36 17 -24 c90 -129 275 -329 304 -329 33 0 105 105 307 444
238 399 404 722 464 904 41 123 45 156 20 167 -20 9 -323 15 -388 9z m140 -91
c-22 -8 -146 -57 -275 -108 -129 -51 -249 -97 -267 -103 -17 -6 -179 -72 -359
-147 -240 -101 -329 -134 -333 -124 -8 25 -170 259 -229 331 l-59 73 201 1
c225 1 377 12 771 54 291 32 337 35 490 38 l100 1 -40 -16z m-30 -92 c-3 -6
-78 -65 -167 -131 -88 -67 -287 -222 -442 -344 -348 -276 -360 -284 -476 -338
-52 -25 -117 -63 -145 -84 -27 -22 -66 -52 -86 -67 l-37 -28 15 78 c25 137 73
307 106 373 l32 65 600 242 c676 273 608 246 600 234z"/>
<path d="M13850 3561 c-52 -12 -91 -30 -126 -56 l-32 -24 -72 37 c-70 36 -77
37 -174 37 -94 0 -107 -2 -162 -30 -52 -27 -65 -40 -112 -115 -99 -159 -106
-249 -28 -405 37 -75 59 -105 125 -168 83 -79 323 -247 354 -247 9 0 103 57
208 126 217 142 308 225 355 319 84 172 4 446 -149 510 -45 19 -139 27 -187
16z"/>
<path d="M230 3514 c-47 -7 -118 -13 -157 -13 l-73 -1 0 -41 0 -42 87 7 c49 3
142 11 209 18 110 11 138 10 304 -11 252 -32 298 -50 406 -162 71 -75 103
-123 132 -201 12 -31 48 -108 81 -170 70 -131 102 -234 127 -408 16 -114 20
-127 48 -153 27 -26 30 -27 39 -11 5 9 7 48 4 87 l-6 70 52 -7 c29 -3 64 -6
79 -6 l27 0 -39 -57 c-47 -68 -62 -133 -50 -209 19 -116 98 -207 203 -235 46
-13 47 -14 47 -54 0 -22 7 -80 15 -130 22 -132 22 -132 -22 -139 -21 -3 -73
-8 -115 -12 l-78 -6 0 94 c0 54 -6 116 -15 144 -26 89 -143 236 -218 275 -41
22 -262 59 -347 59 -83 0 -293 -50 -360 -85 -40 -21 -98 -104 -130 -187 -32
-82 -60 -240 -60 -336 l0 -59 -92 -6 c-51 -3 -146 -11 -210 -18 l-118 -12 0
-38 c0 -46 -15 -44 175 -24 185 19 265 19 265 1 0 -8 2 -21 6 -29 4 -11 -14
-15 -93 -21 -54 -4 -154 -19 -223 -35 l-125 -27 -3 -43 c-3 -41 -2 -43 20 -37
124 33 328 66 394 64 l76 -3 31 -74 c71 -169 246 -278 410 -257 120 16 340
107 427 176 44 35 88 101 119 180 17 42 28 55 44 57 12 0 69 6 126 12 57 6
160 11 230 11 85 0 131 4 139 12 15 15 16 119 2 169 -15 53 -33 64 -101 61
-32 -1 -59 1 -59 5 0 5 -7 53 -15 108 -19 130 -19 233 1 408 32 283 -7 391
-133 372 -21 -3 -92 -2 -157 3 -139 10 -147 16 -166 110 -19 90 -55 184 -100
262 -23 39 -59 114 -82 168 -46 111 -86 170 -164 242 -74 67 -136 109 -195
131 -52 20 -412 70 -488 68 -25 -1 -84 -7 -131 -15z m1543 -1187 c-1 -56 -5
-120 -10 -142 l-9 -40 -37 37 c-34 33 -37 41 -37 90 0 54 26 126 57 161 29 31
38 3 36 -106z m-696 -451 c7 -6 0 -22 -65 -144 l-39 -72 -36 80 c-24 54 -44
83 -58 89 -27 9 -19 15 54 42 49 18 128 21 144 5z m-184 -213 c15 -29 27 -55
27 -58 0 -13 -83 -3 -141 18 l-65 22 11 51 c14 63 19 70 63 98 l37 23 21 -51
c11 -28 33 -74 47 -103z m362 -65 c-11 -48 -29 -79 -72 -121 l-40 -38 -36 62
c-21 34 -36 64 -34 66 5 4 169 61 180 62 5 1 5 -14 2 -31z m693 -65 c4 -53 13
-51 -231 -56 -161 -4 -187 -2 -183 10 3 8 6 25 6 38 0 22 5 23 128 34 290 26
276 27 280 -26z m-1168 11 c19 -7 55 -13 78 -14 l44 0 -37 -67 c-47 -87 -53
-93 -67 -69 -6 11 -26 34 -43 50 -25 24 -34 42 -39 80 -5 43 -4 47 12 41 9 -4
33 -14 52 -21z m250 -48 c7 -14 10 -31 7 -39 -3 -9 7 -23 24 -36 34 -26 31
-33 -29 -73 -32 -22 -44 -24 -89 -19 l-52 6 44 75 c24 41 49 83 55 93 14 23
24 22 40 -7z"/>
<path d="M19125 3489 c-38 -4 -115 -13 -170 -19 -121 -14 -339 -59 -483 -100
-230 -66 -369 -165 -472 -338 -29 -48 -82 -136 -117 -196 -63 -104 -153 -314
-213 -496 l-29 -85 -133 -45 c-136 -46 -164 -61 -254 -136 -100 -84 -150 -187
-175 -359 -8 -55 -28 -340 -29 -411 0 -24 -9 -36 -45 -62 -48 -34 -81 -88 -91
-151 -16 -98 51 -103 436 -32 58 11 155 22 215 26 61 3 204 22 318 42 114 19
209 34 211 32 1 -2 19 -33 38 -69 58 -104 109 -155 202 -200 47 -23 111 -44
152 -51 68 -12 78 -11 203 19 73 18 149 41 170 52 90 45 234 193 277 283 11
22 27 40 41 43 19 5 23 13 23 44 0 21 -5 40 -11 42 -9 3 -9 17 0 56 17 82 14
102 -32 208 -48 111 -110 208 -159 249 -42 36 -129 75 -238 108 -64 20 -110
27 -190 28 -96 2 -111 0 -175 -27 -96 -40 -168 -112 -222 -224 -46 -95 -93
-244 -93 -296 0 -27 -4 -34 -19 -34 -11 0 -67 -11 -125 -25 -65 -15 -136 -25
-183 -25 -83 0 -239 -13 -428 -36 -162 -19 -199 -19 -191 2 3 9 6 35 6 58 0
41 1 43 40 55 66 20 98 97 66 159 -9 18 -18 32 -19 32 -1 0 -18 6 -38 13 -33
11 -35 14 -27 42 7 28 12 31 90 46 120 24 251 89 286 142 24 36 27 50 27 126
0 47 -4 102 -8 122 l-9 35 64 18 c35 9 86 30 113 45 28 15 73 36 101 45 61 20
89 46 79 75 -8 26 -55 28 -110 5 -20 -8 -39 -13 -42 -10 -2 2 11 39 30 83 19
43 44 109 57 146 50 151 254 493 349 586 127 123 389 208 798 261 233 30 213
23 213 70 0 22 -1 39 -2 39 -2 -1 -34 -5 -73 -10z m-1685 -1424 c0 -88 -113
-186 -199 -173 -23 3 -23 4 18 56 39 49 152 142 172 142 5 0 9 -11 9 -25z
m1097 -556 l32 -92 -65 6 c-71 7 -144 26 -144 38 0 4 18 30 40 57 39 51 76 82
95 82 5 0 24 -41 42 -91z m308 48 c30 -29 45 -52 45 -69 0 -24 -3 -26 -91 -37
-50 -7 -93 -10 -96 -8 -2 3 14 31 36 62 23 32 41 67 41 77 0 28 16 22 65 -25z
m-384 -205 c43 -3 79 -7 79 -11 0 -3 -30 -46 -66 -94 -65 -87 -67 -88 -87 -70
-33 30 -57 93 -57 156 l0 57 26 -16 c16 -11 54 -19 105 -22z m419 -2 c0 -69
-52 -138 -128 -172 -24 -11 -45 -18 -47 -16 -1 1 -4 48 -6 103 l-4 100 60 6
c127 12 125 12 125 -21z m-810 -73 l0 -33 -165 -33 c-91 -18 -234 -38 -318
-46 -83 -7 -246 -28 -360 -45 -115 -18 -211 -29 -214 -26 -10 10 32 71 64 92
24 16 54 22 127 27 52 4 146 13 208 21 62 8 194 20 293 25 112 7 208 18 255
30 108 27 110 27 110 -12z"/>
<path d="M18900 3345 c-90 -10 -160 -25 -250 -53 -69 -22 -143 -43 -165 -47
-78 -13 -103 -27 -158 -84 -37 -39 -72 -91 -107 -162 -29 -57 -65 -122 -80
-144 -42 -62 -107 -197 -136 -282 -34 -101 -40 -251 -11 -280 25 -25 81 -21
338 21 240 40 313 49 584 71 105 8 211 18 238 21 l47 6 0 381 c0 402 -7 495
-38 536 -16 22 -27 26 -78 27 -32 1 -115 -4 -184 -11z m205 -74 c3 -5 10 -132
15 -283 5 -150 15 -319 21 -376 6 -56 8 -109 5 -117 -4 -12 -27 -15 -103 -15
-54 0 -116 -5 -138 -10 -22 -5 -112 -16 -200 -25 -88 -8 -257 -31 -375 -49
-118 -19 -230 -36 -248 -39 l-33 -4 6 51 c18 143 58 241 174 426 39 63 74 124
77 137 3 12 15 23 27 25 12 2 36 23 54 48 75 103 77 104 245 158 137 45 213
61 358 75 72 8 109 7 115 -2z"/>
<path d="M8649 3257 c-181 -51 -268 -198 -298 -497 -6 -58 -17 -127 -25 -155
-34 -114 -110 -188 -225 -222 -71 -20 -245 -19 -326 2 -77 20 -195 78 -314
155 -91 58 -164 90 -177 77 -4 -4 -7 -140 -8 -304 -1 -338 5 -377 83 -534 93
-185 198 -287 396 -384 190 -93 371 -136 576 -136 187 -1 317 28 460 102 154
80 271 203 386 406 132 232 194 497 180 769 l-5 100 47 17 c105 37 171 102
192 189 11 47 10 52 -7 65 -35 25 -97 35 -208 31 l-111 -3 -57 85 c-76 114
-153 172 -298 222 -71 25 -201 32 -261 15z m227 -83 c232 -77 389 -318 410
-628 17 -246 -77 -588 -221 -806 -162 -244 -377 -388 -461 -309 -15 14 -40 22
-80 25 -90 8 -90 9 -33 66 33 33 65 79 88 127 34 72 36 82 36 176 0 87 -3 107
-26 156 -35 73 -88 131 -147 160 -39 19 -63 23 -142 23 -119 1 -165 -14 -330
-105 -186 -102 -214 -112 -271 -105 -38 5 -60 2 -106 -18 -44 -18 -152 -46
-180 -46 -12 0 94 84 138 109 38 21 60 42 72 66 l17 36 -28 10 c-37 14 -80 6
-163 -32 -38 -18 -73 -29 -77 -25 -10 11 26 35 65 42 50 9 40 24 -17 24 -46 0
-50 2 -50 24 0 18 8 27 31 35 38 13 60 14 41 2 -10 -6 -2 -13 27 -25 23 -9 50
-16 61 -16 21 0 64 41 52 49 -12 10 -30 91 -21 97 14 8 10 24 -5 24 -13 0 -41
58 -32 67 2 2 66 -12 142 -32 260 -66 432 -69 559 -11 124 57 195 189 195 366
0 76 25 215 50 284 67 178 224 251 406 190z m-460 -1109 c50 -29 99 -100 120
-173 28 -96 -8 -196 -107 -294 -97 -97 -263 -161 -328 -126 -13 7 -33 25 -43
39 l-20 26 26 26 c14 14 26 31 26 36 0 6 -30 9 -71 9 -69 -2 -73 0 -100 30
-16 18 -29 39 -29 47 0 8 20 23 45 34 25 11 45 24 45 29 0 9 -68 32 -133 47
-16 3 -47 23 -70 45 -38 35 -40 39 -22 45 69 22 178 67 297 122 215 99 277
109 364 58z"/>
<path d="M3994 2981 c-13 -6 -24 -22 -28 -41 -12 -62 -7 -81 29 -113 19 -17
35 -35 35 -41 0 -5 -17 7 -38 27 -31 30 -45 37 -78 37 l-40 0 -24 -67 -23 -66
44 -39 c46 -41 37 -42 -18 -2 -38 29 -107 33 -117 8 -3 -9 -6 -37 -6 -63 0
-101 82 -161 250 -184 l95 -13 17 -44 c35 -91 16 -160 -91 -339 -102 -173
-141 -283 -162 -458 -26 -217 44 -468 182 -650 21 -29 39 -54 39 -56 0 -2 -19
-9 -42 -16 -136 -41 -276 -157 -316 -263 -77 -206 4 -411 218 -553 l68 -45
113 0 114 0 -110 54 c-234 113 -339 232 -340 381 0 59 5 78 30 123 77 140 254
230 540 276 50 8 109 17 132 20 l42 6 19 -52 c11 -29 32 -111 46 -183 30 -141
56 -199 109 -239 117 -87 312 -133 607 -143 255 -8 447 17 597 79 l71 29 20
87 c11 48 26 113 33 145 14 64 15 64 96 43 125 -33 246 -104 346 -203 78 -77
117 -157 117 -237 0 -62 -24 -132 -57 -168 -15 -17 -13 -18 45 -18 l60 0 19
47 c13 36 18 75 18 158 0 103 -2 114 -31 175 -41 86 -91 141 -158 176 l-54 28
24 29 c74 88 87 169 54 337 -14 73 -20 132 -17 163 8 65 51 140 100 174 36 25
48 28 126 28 74 0 95 -4 151 -30 177 -81 322 -265 366 -461 21 -94 16 -263
-10 -311 -16 -31 -75 -66 -158 -92 -47 -15 -127 -86 -144 -128 -8 -18 -14 -46
-14 -63 0 -27 6 -34 43 -50 55 -25 76 -25 105 2 l23 23 -10 -28 c-21 -55 -16
-63 82 -122 51 -30 104 -55 117 -55 30 0 141 88 170 135 23 38 25 86 6 166
-14 57 -12 84 14 182 9 33 11 95 7 205 -4 130 -9 172 -31 247 -30 101 -86 224
-142 312 -43 68 -161 193 -222 235 -191 132 -403 148 -605 47 -117 -60 -185
-148 -207 -269 -14 -77 -9 -139 27 -315 29 -141 27 -172 -11 -210 -33 -33 -83
-40 -150 -21 -55 16 -56 17 -56 54 0 20 18 152 40 292 22 140 45 314 51 385
32 387 -52 729 -241 985 -109 146 -233 237 -400 292 -131 43 -305 51 -431 19
-281 -70 -499 -286 -603 -599 -83 -251 -89 -443 -27 -877 23 -159 44 -300 46
-312 5 -22 3 -23 -63 -23 -97 0 -125 12 -165 73 -56 85 -115 211 -143 304 -20
70 -25 110 -25 193 0 143 28 234 145 470 112 225 140 317 134 435 -4 56 -13
99 -32 145 -16 39 -31 98 -36 147 -11 101 -28 139 -89 197 -77 71 -167 107
-217 87z m1390 -326 c253 -54 480 -278 591 -585 85 -237 105 -564 56 -895 -18
-119 -66 -374 -76 -402 -3 -8 -19 -6 -56 8 -28 11 -92 26 -141 33 -49 7 -91
15 -93 18 -2 2 11 78 30 168 54 263 68 405 62 614 -5 213 -22 291 -92 433 -36
72 -63 110 -123 172 -69 71 -84 81 -145 100 -128 39 -233 38 -376 -5 -45 -13
-70 -31 -150 -108 -53 -51 -124 -109 -158 -130 -109 -65 -143 -125 -143 -252
0 -92 21 -166 65 -229 28 -41 39 -72 54 -151 23 -115 33 -144 96 -279 44 -96
85 -203 85 -225 0 -7 -49 -10 -147 -8 l-148 3 -27 130 c-101 488 -85 875 46
1140 165 332 485 515 790 450z m-27 -406 c102 -44 228 -203 278 -352 55 -164
55 -479 0 -803 -45 -264 -70 -344 -187 -585 -83 -172 -93 -187 -120 -193 -36
-7 -107 -1 -240 21 l-98 16 0 182 c0 265 -23 383 -131 662 -73 189 -116 336
-101 341 6 2 35 15 64 30 63 32 83 64 104 163 27 128 7 267 -47 325 l-20 21
61 56 c145 131 304 173 437 116z m-471 -1401 c11 -12 34 -121 34 -169 l0 -45
-69 -11 c-38 -6 -95 -22 -125 -36 l-56 -26 -9 37 c-8 29 -61 261 -61 266 0 5
280 -11 286 -16z m908 -103 c33 -9 79 -24 102 -34 l42 -19 -19 -84 c-10 -45
-19 -87 -19 -91 0 -5 -12 0 -27 11 -38 27 -123 51 -205 59 -77 7 -81 13 -53
93 8 23 15 54 15 68 0 24 1 25 53 19 28 -4 79 -14 111 -22z"/>
<path d="M12420 1970 c0 -60 -1 -110 -3 -110 -2 0 -29 5 -61 11 -32 5 -71 7
-87 4 -27 -6 -30 -10 -27 -43 3 -32 11 -42 63 -78 33 -23 65 -52 71 -64 15
-28 4 -70 -31 -120 -25 -35 -35 -100 -15 -100 16 0 119 48 150 70 15 11 31 20
34 20 3 0 15 -19 27 -42 25 -50 48 -78 63 -78 6 0 25 39 42 88 34 97 23 91
141 77 69 -9 113 -1 113 19 0 8 -27 40 -60 72 -71 69 -74 84 -30 194 39 100
39 111 -2 103 -18 -3 -66 -19 -107 -36 -91 -37 -108 -33 -169 43 -44 54 -75
79 -99 80 -10 0 -13 -28 -13 -110z"/>
<path d="M14331 1403 c-92 -55 -262 -193 -366 -298 -132 -132 -154 -199 -81
-244 45 -28 67 -26 101 9 16 17 45 35 64 40 57 16 200 11 256 -8 l50 -17 0
-48 c1 -57 18 -77 72 -84 39 -5 41 -4 52 30 34 101 79 471 67 548 -9 60 -45
95 -106 104 -40 5 -52 2 -109 -32z m61 -273 c-2 -43 -8 -78 -15 -82 -17 -11
-60 -10 -135 3 l-64 11 54 55 c66 68 105 94 138 91 25 -3 25 -4 22 -78z"/>
<path d="M14683 1128 c-108 -158 -176 -281 -180 -328 -5 -52 26 -114 54 -108
9 2 47 61 88 141 40 76 77 143 82 148 6 6 14 4 23 -6 11 -14 11 -35 -4 -131
-18 -121 -14 -143 24 -164 10 -5 34 -10 54 -10 31 0 38 5 70 58 34 56 150 161
163 148 4 -3 -3 -34 -15 -69 -52 -153 -52 -155 22 -209 49 -35 62 -35 71 -1
17 68 130 373 157 423 l29 55 -28 23 c-65 54 -68 55 -110 33 -63 -32 -173
-114 -250 -186 l-73 -67 0 93 c0 51 5 107 11 124 25 67 -12 105 -101 105 -35
0 -41 -4 -87 -72z"/>
<path d="M9945 1050 c-105 -17 -204 -69 -270 -142 -49 -54 -65 -94 -79 -206
l-12 -94 -47 71 c-55 82 -100 111 -174 111 -61 0 -120 -27 -160 -73 -45 -51
-58 -98 -57 -208 l0 -97 -36 -11 c-127 -38 -224 -174 -237 -333 l-6 -68 40 0
40 0 6 61 c10 118 93 239 182 266 35 11 36 11 56 -29 l21 -41 -46 -40 c-66
-55 -107 -146 -91 -197 5 -16 15 -20 46 -20 36 0 40 2 34 20 -11 34 5 80 42
121 20 22 40 39 45 39 5 0 53 -40 106 -90 l96 -90 80 0 c80 1 81 1 51 17 -56
30 -142 102 -209 174 -74 80 -130 182 -147 270 -26 132 68 270 167 245 37 -10
110 -81 135 -134 22 -43 22 -46 5 -56 -56 -33 -57 -36 -36 -94 52 -146 204
-257 270 -197 14 13 23 11 83 -21 37 -19 72 -45 78 -56 15 -28 5 -104 -16
-128 -18 -20 -17 -20 38 -20 l56 0 12 55 c23 102 -10 159 -127 223 l-59 31 91
1 c111 0 181 12 251 45 74 33 156 119 196 202 28 59 32 79 32 148 0 65 -5 90
-26 135 -50 107 -164 189 -290 210 -35 5 -68 9 -74 9 -5 -1 -32 -5 -60 -9z
m201 -110 c70 -30 112 -68 140 -126 23 -47 26 -64 22 -117 -12 -145 -124 -268
-271 -296 -25 -4 -89 -6 -141 -3 -108 5 -132 -4 -168 -64 l-20 -34 -40 22
c-37 21 -98 90 -98 111 0 5 10 17 23 27 46 36 77 112 86 212 11 113 22 142 69
191 94 98 274 133 398 77z"/>
<path d="M15479 1047 c-145 -41 -244 -165 -256 -321 -8 -104 22 -158 112 -204
90 -45 251 -54 326 -18 63 30 153 171 165 259 9 61 -17 143 -61 194 -66 77
-190 116 -286 90z m156 -126 c90 -41 109 -103 60 -186 -31 -54 -131 -131 -181
-141 -44 -8 -117 18 -144 53 -42 54 -17 166 51 229 71 66 138 80 214 45z"/>
<path d="M15950 938 c-20 -11 -26 -23 -30 -64 -7 -73 -117 -290 -171 -339 -38
-34 -40 -38 -29 -65 18 -44 44 -62 82 -58 28 3 39 12 76 68 24 36 46 70 50 77
5 8 21 9 52 3 38 -7 55 -19 109 -75 35 -37 72 -87 83 -111 20 -46 40 -54 79
-34 46 25 -1 129 -90 197 -53 40 -61 53 -35 53 30 0 162 69 198 104 28 26 36
41 36 68 0 55 -47 110 -127 150 -60 29 -78 33 -163 36 -64 2 -103 -2 -120 -10z
m219 -109 c28 -6 61 -19 73 -28 l21 -18 -44 -30 c-24 -17 -59 -38 -77 -47 -35
-18 -162 -34 -162 -21 0 17 72 135 88 144 22 13 40 13 101 0z"/>
<path d="M12078 387 c-140 -93 -308 -230 -408 -331 l-54 -56 357 0 357 0 0
134 c0 164 -20 241 -78 304 l-37 41 -137 -92z m170 -259 l7 -107 -43 -7 c-135
-20 -252 35 -291 138 -9 25 -6 28 57 71 37 25 103 71 147 102 l80 56 18 -73
c10 -40 21 -121 25 -180z"/>
<path d="M908 233 c-27 -33 -44 -68 -71 -145 -15 -42 -27 -79 -27 -82 0 -3 22
-6 49 -6 47 0 49 1 55 32 7 37 53 118 66 118 5 0 27 -34 50 -75 l41 -75 55 0
c30 0 54 3 54 8 0 4 -24 52 -53 107 l-52 100 -65 17 c-84 21 -84 21 -102 1z"/>
</g>
</svg>
