<svg version="1.1"
      xmlns="http://www.w3.org/2000/svg"
      xmlns:xlink="http://www.w3.org/1999/xlink"  id="snapshot-82564" width="125" height="100" viewBox="0 0 125 100"><desc>This image was made on Patterninja.com</desc><defs>
<!-- image 69224 -->
<g id="transformed-69224" data-image="69224" transform="translate(35, 25) rotate(32, 48, 10)"><g><svg version="1.1" width="96px" height="20px" viewBox="0 0 96 20"><g id="original-69224"><svg xmlns="http://www.w3.org/2000/svg" fill="none" viewBox="0 0 52 11" xmlns:xlink="http://www.w3.org/1999/xlink" version="1.1" preserveAspectRatio="xMidYMid meet">
  <path d="M1.066 8.06a.522.522 0 0 1-.384-.156.522.522 0 0 1-.156-.384V2.372c0-.152.052-.28.156-.384a.503.503 0 0 1 .384-.168c.152 0 .28.056.384.168a.503.503 0 0 1 .168.384v.492c.304-.336.632-.604.984-.804.352-.2.768-.3 1.248-.3.44 0 .82.104 1.14.312.328.208.576.492.744.852.176.36.264.756.264 1.188V7.52c0 .152-.056.28-.168.384a.522.522 0 0 1-.384.156.522.522 0 0 1-.384-.156.522.522 0 0 1-.156-.384V4.232c0-.976-.44-1.464-1.32-1.464-.4 0-.76.104-1.08.312a3.95 3.95 0 0 0-.888.84v3.6c0 .152-.056.28-.168.384a.522.522 0 0 1-.384.156zm9.509.06c-.976 0-1.74-.276-2.292-.828-.544-.56-.816-1.344-.816-2.352 0-.568.104-1.092.312-1.572.208-.48.528-.868.96-1.164.432-.296.964-.444 1.596-.444.592 0 1.104.14 1.536.42.432.272.76.64.984 1.104.224.456.336.956.336 1.5 0 .152-.052.28-.156.384a.512.512 0 0 1-.396.156H8.57c.064.56.272.996.624 1.308.352.312.844.468 1.476.468.336 0 .628-.032.876-.096.256-.064.504-.156.744-.276a.476.476 0 0 1 .216-.048c.128 0 .24.044.336.132.096.088.144.2.144.336 0 .176-.104.324-.312.444-.312.176-.62.308-.924.396-.304.088-.696.132-1.176.132zm1.536-3.684c-.024-.392-.128-.72-.312-.984a1.568 1.568 0 0 0-.66-.576 1.826 1.826 0 0 0-.804-.192c-.272 0-.54.064-.804.192-.264.12-.484.312-.66.576-.176.264-.276.592-.3.984h3.54zM16.4 8.06a.702.702 0 0 1-.432-.144.732.732 0 0 1-.264-.36L14 2.564a.646.646 0 0 1-.036-.204c0-.152.052-.28.156-.384a.522.522 0 0 1 .384-.156c.112 0 .212.032.3.096a.41.41 0 0 1 .192.228l1.404 4.62 1.392-4.512a.615.615 0 0 1 .216-.312.626.626 0 0 1 .372-.12c.136 0 .256.04.36.12.112.08.188.184.228.312l1.392 4.512 1.404-4.62a.422.422 0 0 1 .18-.228.552.552 0 0 1 .312-.096c.152 0 .28.052.384.156a.522.522 0 0 1 .156.384.646.646 0 0 1-.036.204l-1.704 4.992a.732.732 0 0 1-.264.36.702.702 0 0 1-.432.144.702.702 0 0 1-.432-.144.801.801 0 0 1-.276-.372L18.38 3.572l-1.272 3.972a.801.801 0 0 1-.276.372.702.702 0 0 1-.432.144zm11.337 2.76a.503.503 0 0 1-.384-.168.522.522 0 0 1-.156-.384V2.36c0-.152.052-.28.156-.384a.522.522 0 0 1 .384-.156c.152 0 .28.052.384.156a.503.503 0 0 1 .168.384v.312c.584-.608 1.268-.912 2.052-.912.496 0 .964.128 1.404.384.448.248.808.616 1.08 1.104.28.48.42 1.044.42 1.692 0 .648-.14 1.216-.42 1.704a2.815 2.815 0 0 1-2.484 1.476c-.784 0-1.468-.304-2.052-.912v3.06c0 .16-.052.292-.156.396a.537.537 0 0 1-.396.156zm2.448-3.72c.592 0 1.068-.188 1.428-.564.36-.376.54-.908.54-1.596 0-.688-.18-1.22-.54-1.596-.36-.376-.836-.564-1.428-.564-.368 0-.716.084-1.044.252-.32.16-.604.376-.852.648V6.2c.248.272.532.492.852.66.328.16.676.24 1.044.24zm7.282 1.02c-.616 0-1.156-.132-1.62-.396a2.739 2.739 0 0 1-1.08-1.116c-.248-.488-.372-1.044-.372-1.668 0-.624.124-1.176.372-1.656a2.721 2.721 0 0 1 1.08-1.128c.464-.264 1.004-.396 1.62-.396.608 0 1.144.132 1.608.396.464.264.824.64 1.08 1.128.256.48.384 1.032.384 1.656 0 .624-.128 1.18-.384 1.668-.256.48-.616.852-1.08 1.116-.464.264-1 .396-1.608.396zm0-.996c.328 0 .64-.076.936-.228.304-.152.552-.392.744-.72.2-.328.3-.744.3-1.248 0-.496-.1-.908-.3-1.236a1.708 1.708 0 0 0-.744-.708 2.022 2.022 0 0 0-.936-.228c-.336 0-.656.076-.96.228-.296.144-.54.38-.732.708-.192.328-.288.74-.288 1.236 0 .504.096.92.288 1.248.192.328.436.568.732.72.304.152.624.228.96.228zm6.581.996c-.8 0-1.528-.18-2.184-.54a.459.459 0 0 1-.204-.396c0-.128.044-.24.132-.336a.436.436 0 0 1 .336-.144c.072 0 .144.016.216.048.256.112.512.2.768.264s.544.096.864.096c.888 0 1.332-.284 1.332-.852 0-.184-.104-.324-.312-.42-.2-.096-.532-.204-.996-.324a9.376 9.376 0 0 1-1.176-.348 2.15 2.15 0 0 1-.792-.54c-.216-.248-.324-.572-.324-.972 0-.56.2-1.016.6-1.368.408-.352.988-.528 1.74-.528.616 0 1.196.1 1.74.3a.423.423 0 0 1 .252.18c.064.088.096.18.096.276a.46.46 0 0 1-.144.336.436.436 0 0 1-.336.144.674.674 0 0 1-.156-.024 4.6 4.6 0 0 0-1.368-.216c-.432 0-.772.08-1.02.24-.24.152-.36.352-.36.6 0 .24.112.416.336.528.224.112.572.22 1.044.324.472.12.856.24 1.152.36.296.112.548.292.756.54.216.248.324.58.324.996 0 .512-.204.936-.612 1.272-.4.336-.968.504-1.704.504zm5.85 0c-1.167 0-1.751-.528-1.751-1.584v-3.72h-.852a.254.254 0 0 1-.168-.06.254.254 0 0 1 .048-.372L48.808.788c.072-.072.14-.108.204-.108.064 0 .116.024.156.072a.23.23 0 0 1 .072.168v.96h1.356c.136 0 .248.044.336.132.088.088.132.2.132.336 0 .128-.044.24-.132.336a.455.455 0 0 1-.336.132H49.24V6.44c0 .312.072.512.216.6.152.08.34.12.564.12.16 0 .32-.024.48-.072l.096-.024a.745.745 0 0 1 .144-.012c.112 0 .212.044.3.132.088.08.132.18.132.3 0 .184-.092.324-.276.42a2.348 2.348 0 0 1-.996.216z" fill="rgba(178, 235, 242, 0.5)" stroke="none"/>
</svg>
</g></svg></g></g>
<!-- /image 69224 -->
</defs><rect x="0" y="0" width="125" height="100" fill="rgba(255, 255, 255, 0)"></rect><use xlink:href="#transformed-69224" transform="translate(-125, -100)"></use><use xlink:href="#transformed-69224" transform="translate(0, -100)"></use><use xlink:href="#transformed-69224" transform="translate(125, -100)"></use><use xlink:href="#transformed-69224" transform="translate(-125, 0)"></use><use xlink:href="#transformed-69224" transform="translate(0, 0)"></use><use xlink:href="#transformed-69224" transform="translate(125, 0)"></use><use xlink:href="#transformed-69224" transform="translate(-125, 100)"></use><use xlink:href="#transformed-69224" transform="translate(0, 100)"></use><use xlink:href="#transformed-69224" transform="translate(125, 100)"></use></svg>