<?xml version="1.0" standalone="no"?>
<!DOCTYPE svg PUBLIC "-//W3C//DTD SVG 20010904//EN"
 "http://www.w3.org/TR/2001/REC-SVG-20010904/DTD/svg10.dtd">
<svg version="1.0" xmlns="http://www.w3.org/2000/svg"
 width="636.000000pt" height="636.000000pt" viewBox="0 0 636.000000 636.000000"
 preserveAspectRatio="xMidYMid meet">
<metadata>
Created by potrace 1.11, written by Peter Selinger 2001-2013
</metadata>
<g transform="translate(0.000000,636.000000) scale(0.100000,-0.100000)"
fill="#000000" stroke="none">
<path d="M0 3682 c0 -1319 3 -2401 6 -2404 3 -3 17 -3 32 1 15 4 44 4 64 1 21
-4 38 -4 38 -1 0 8 76 5 89 -4 6 -3 9 -23 9 -44 0 -22 3 -44 6 -49 3 -6 2 -13
-4 -17 -6 -4 -7 -12 -3 -18 4 -6 6 -33 5 -59 -1 -43 1 -48 21 -48 12 -1 99 0
192 0 94 1 176 1 183 1 23 -2 47 -2 182 -2 73 0 136 -1 138 -3 2 -2 16 -1 30
3 15 4 38 5 52 1 14 -4 37 -3 53 1 15 4 27 4 27 -1 0 -5 12 -5 28 -1 15 4 38
5 52 1 14 -3 35 -4 48 -1 12 3 81 4 152 1 71 -3 145 -2 164 1 19 3 40 2 47 -1
6 -4 22 -5 35 -1 13 3 82 4 153 1 72 -3 141 -2 153 1 13 3 34 3 48 -1 14 -4
37 -3 53 1 15 4 27 3 27 -1 0 -5 12 -5 28 -1 15 4 38 5 52 1 14 -3 35 -4 48
-1 12 3 81 4 152 1 71 -3 145 -2 164 1 19 3 40 2 47 -1 6 -4 22 -5 35 -1 13 3
82 4 153 1 72 -3 141 -2 153 1 13 3 34 3 48 -1 14 -4 37 -3 53 1 15 4 27 3 27
-1 0 -5 12 -5 27 -1 16 4 39 5 53 1 14 -4 37 -3 53 1 15 4 40 4 56 -1 15 -4
34 -4 40 0 7 4 26 4 42 1 16 -3 70 -4 120 -1 50 3 92 3 95 1 2 -2 -1 -11 -6
-20 -5 -10 -5 -23 -1 -29 4 -7 5 -32 1 -55 -3 -24 -3 -55 1 -70 4 -15 3 -27
-1 -27 -5 0 -5 -13 0 -30 5 -17 5 -30 0 -30 -5 0 -5 -13 0 -30 5 -17 5 -30 0
-30 -5 0 -5 -13 0 -30 5 -17 5 -30 0 -30 -5 0 -4 -14 1 -32 5 -18 5 -36 1 -40
-5 -5 -7 -22 -4 -38 3 -23 9 -29 26 -28 11 1 31 -2 43 -6 12 -4 24 -3 27 3 3
5 18 6 34 2 15 -4 44 -4 65 -1 49 10 51 4 47 -147 -1 -40 1 -77 5 -82 4 -8
317 -11 1002 -11 l995 0 -4 40 c-2 22 -1 40 3 40 3 0 3 18 -1 40 -4 22 -4 40
0 40 4 0 4 18 0 40 -4 22 -4 43 1 46 4 2 6 10 4 17 -9 23 -11 82 -4 108 4 15
3 32 -1 39 -4 7 -4 25 0 40 4 15 4 33 0 40 -4 7 -4 24 0 39 4 14 4 35 0 46 -4
11 -4 29 0 40 4 11 4 32 -1 47 -4 14 -4 29 -1 33 3 3 6 18 7 33 0 25 3 27 55
32 30 3 103 3 162 0 59 -3 118 -2 130 1 13 3 34 3 48 -1 14 -4 37 -3 53 1 16
4 27 3 27 -2 0 -6 5 -7 11 -3 6 3 33 6 60 5 l49 -1 0 2400 0 2400 -42 1 c-24
1 -47 0 -53 -1 -31 -7 -41 -6 -52 3 -8 6 -13 6 -13 0 0 -6 -16 -7 -37 -4 -41
7 -55 34 -42 82 4 15 3 32 -1 39 -4 7 -5 24 -1 39 4 14 5 38 3 54 l-3 27
-3060 0 -3059 0 0 -2398z"/>
</g>
</svg>
